<svg id="Capa_1" data-name="Capa 1" xmlns="http://www.w3.org/2000/svg" viewBox="0 0 226.68 82.46"><defs><style>.cls-1{fill:#231f20;}</style></defs><title>Feel</title><path class="cls-1" d="M75,16.54a4.14,4.14,0,0,1-3.36,1.84,7,7,0,0,1-2.39-.51,5.33,5.33,0,0,1-2.19-1.43c-1.36-.06-3.32-.06-5.9,0l-9,.26q-5.09.15-11.19.2t-12.52,0q.09,4.17.3,8.24t.51,8.05q2.85-.11,6.82-.36c2.65-.17,5.34-.37,8.09-.61s5.38-.49,7.89-.76,4.58-.51,6.21-.72a13.31,13.31,0,0,0,3.87-1.12,3.38,3.38,0,0,1,2.64-.46,4.6,4.6,0,0,1,2,1.18,4.33,4.33,0,0,1,1,3,3.81,3.81,0,0,1-1.68,3A8.92,8.92,0,0,1,63,37.61c-1.19.28-2.46.55-3.82.82q-2.74.41-6.46.76c-2.48.24-5,.46-7.73.66l-8.1.61c-2.71.21-5.19.34-7.43.41q.12,2.85.28,7c.1,2.79.23,5.7.38,8.76s.29,6.09.43,9.11.29,5.75.44,8.19a2.89,2.89,0,0,1-1,2.85,4.3,4.3,0,0,1-2.64.92,4.75,4.75,0,0,1-2.75-.92,3,3,0,0,1-1.33-2.64q-.2-3.87-.45-8.3c-.17-3-.34-5.89-.51-8.8s-.31-5.74-.41-8.45-.15-5.19-.15-7.43a14.59,14.59,0,0,1-3.06-.51,4,4,0,0,1-1.83-1.43,4.17,4.17,0,0,1-.71-1.93,2.44,2.44,0,0,1,.41-1.63A3.14,3.14,0,0,1,18,34.46c.54-.2,1.12-.41,1.73-.61s1.19-.37,1.73-.51q-.11-3-.3-7.53c-.14-3.06-.28-6-.41-9-.54,0-1.34,0-2.39,0a17.22,17.22,0,0,1-2.5,0c-.81.95-2.24,1.12-4.27.51a6.58,6.58,0,0,1-3.21-2.09,5.17,5.17,0,0,1-1.17-2.8A3.43,3.43,0,0,1,8.58,9.72a5.53,5.53,0,0,1,4-.91q5.49.51,13,.61t15.26-.05Q48.63,9.22,55.65,9c4.68-.13,8.52-.2,11.5-.2a16.2,16.2,0,0,1,4.28.56,5.81,5.81,0,0,1,2.85,1.47A5.21,5.21,0,0,1,75.7,13.9,3.89,3.89,0,0,1,75,16.54Z"/><path class="cls-1" d="M112,61.64a3.6,3.6,0,0,1,.26,2.85,3.29,3.29,0,0,1-2.4,2.13q-2.34.82-6,2.29t-8,2.8a59.94,59.94,0,0,1-9.26,2A31,31,0,0,1,77,73.54a12.68,12.68,0,0,1-7.23-3.35q-4.68-4.48-3.15-12.73a31.69,31.69,0,0,1,2-7.22,47.63,47.63,0,0,1,3-6.11,46.64,46.64,0,0,1,3.31-4.89,39.3,39.3,0,0,1,3.11-3.56c1-1,1.89-1.81,2.85-2.6a12.27,12.27,0,0,1,2.54-1.67,16.69,16.69,0,0,1,2.7-1.07,14.72,14.72,0,0,1,3-.61,12.92,12.92,0,0,1,3.11.05,7.22,7.22,0,0,1,2.85,1,6.66,6.66,0,0,1,2.34,2.35,9.91,9.91,0,0,1,1.12,3.1,13.91,13.91,0,0,1,.15,3.56,24.43,24.43,0,0,1-.56,3.62,16.09,16.09,0,0,1-3.41,6.26,28.76,28.76,0,0,1-5.85,5.14,36.26,36.26,0,0,1-7.23,3.71,27.15,27.15,0,0,1-7.43,1.78,5.43,5.43,0,0,0,.81,4,5.17,5.17,0,0,0,3.36,1.89,19.59,19.59,0,0,0,7.59.15,62.27,62.27,0,0,0,8.14-1.88q4-1.23,7.63-2.65t6-2.14a3.15,3.15,0,0,1,2.69.15A4,4,0,0,1,112,61.64ZM91,41.69c.48-2.11.34-3.5-.4-4.18a2.85,2.85,0,0,0-2-.3,6.5,6.5,0,0,0-2.14.71,18,18,0,0,0-3.15,2.65,30.87,30.87,0,0,0-4.13,5.24,26.63,26.63,0,0,0-3,6.36,22.58,22.58,0,0,0,4.68-1.43,26,26,0,0,0,4.58-2.44A18.29,18.29,0,0,0,89,45.2,9,9,0,0,0,91,41.69Z"/><path class="cls-1" d="M151.43,61.64a3.6,3.6,0,0,1,.26,2.85,3.28,3.28,0,0,1-2.39,2.13c-1.56.55-3.57,1.31-6,2.29s-5.12,1.92-8,2.8a59.69,59.69,0,0,1-9.26,2,31,31,0,0,1-9.57-.16,12.68,12.68,0,0,1-7.23-3.35q-4.68-4.48-3.15-12.73a32.21,32.21,0,0,1,2-7.22,46.36,46.36,0,0,1,3-6.11,45.13,45.13,0,0,1,3.3-4.89,40.92,40.92,0,0,1,3.11-3.56c1-1,1.9-1.81,2.85-2.6a12.27,12.27,0,0,1,2.54-1.67,17.46,17.46,0,0,1,2.7-1.07,14.72,14.72,0,0,1,3.05-.61,12.92,12.92,0,0,1,3.11.05,7.12,7.12,0,0,1,2.85,1,6.5,6.5,0,0,1,2.34,2.35,9.66,9.66,0,0,1,1.12,3.1,13.91,13.91,0,0,1,.15,3.56,24.43,24.43,0,0,1-.56,3.62,16.09,16.09,0,0,1-3.41,6.26,28.76,28.76,0,0,1-5.85,5.14,36.26,36.26,0,0,1-7.23,3.71,27.06,27.06,0,0,1-7.43,1.78,5.38,5.38,0,0,0,.82,4,5.12,5.12,0,0,0,3.36,1.89,19.53,19.53,0,0,0,7.58.15,61.9,61.9,0,0,0,8.14-1.88q4-1.23,7.64-2.65c2.4-1,4.39-1.66,5.95-2.14a3.18,3.18,0,0,1,2.7.15A4.06,4.06,0,0,1,151.43,61.64Zm-21.07-20c.48-2.11.34-3.5-.4-4.18a2.84,2.84,0,0,0-2-.3,6.5,6.5,0,0,0-2.14.71,18,18,0,0,0-3.15,2.65,30.35,30.35,0,0,0-4.12,5.24,26.29,26.29,0,0,0-3,6.36,22.66,22.66,0,0,0,4.69-1.43,26.74,26.74,0,0,0,4.58-2.44,18.21,18.21,0,0,0,3.61-3.1A9,9,0,0,0,130.36,41.69Z"/><path class="cls-1" d="M192.66,61.33a3.82,3.82,0,0,1,0,2.8,4.24,4.24,0,0,1-2.6,2.29l-6.77,2.34a79.22,79.22,0,0,1-8.7,2.44,52.55,52.55,0,0,1-9.26,1.22,19.86,19.86,0,0,1-8.45-1.32,15,15,0,0,1-8.75-9.26q-2.36-6.62-2.24-16.49a51,51,0,0,1,.81-8.86,64.68,64.68,0,0,1,2.19-8.8A65.33,65.33,0,0,1,152,19.75a45.58,45.58,0,0,1,3.61-6.36,28,28,0,0,1,6.46-6.82,8.08,8.08,0,0,1,6.06-1.73q3,.41,5,3.92t2.39,10.43a45.52,45.52,0,0,1,0,6,63.07,63.07,0,0,1-.76,6.46c-.38,2.17-.85,4.29-1.43,6.36a43.7,43.7,0,0,1-2,5.65,45.12,45.12,0,0,1-2.8,5.45Q167,51.66,165.28,54t-3.51,4.38q-1.78,2-3.41,3.76a12.75,12.75,0,0,0,1.88,1.23,7.75,7.75,0,0,0,2.39.91,20.43,20.43,0,0,0,5.6,0,47.22,47.22,0,0,0,6.31-1.17q3.26-.81,6.62-1.88c2.24-.71,4.37-1.44,6.41-2.19a3.92,3.92,0,0,1,3.16.1A3.78,3.78,0,0,1,192.66,61.33ZM167.82,20.72c-.2-3.73-.87-5.74-2-6s-2.56.95-4.45,3.87a36.29,36.29,0,0,0-2.62,5c-.88,2-1.7,4.21-2.48,6.61a59.34,59.34,0,0,0-1.87,7.54,51.07,51.07,0,0,0-.81,7.58A24,24,0,0,0,155,54.82q2.63-3.16,5.25-6.77a38.68,38.68,0,0,0,4.35-7.69,40.14,40.14,0,0,0,1.26-3.92A48.6,48.6,0,0,0,167,31.3c.31-1.83.54-3.66.71-5.49A37.29,37.29,0,0,0,167.82,20.72Z"/><path id="_Trazado_compuesto_" data-name="&lt;Trazado compuesto&gt;" class="cls-1" d="M207.62,47.13a21,21,0,0,0-3.27,5.59,13.46,13.46,0,0,0-1.68-2c-1.36-1.34-4-2.91-5.63-.75s1,4.78,2.11,6.52c1.92,3,3.83,6.07,5.76,9.09a1.17,1.17,0,0,0,2-.39,152.58,152.58,0,0,0,2.66-17.32A1.09,1.09,0,0,0,207.62,47.13Zm-.78,5.32c-.05.39-.11.79-.16,1.18a.87.87,0,0,0-.24-.1c.07-.2.13-.41.21-.61S206.77,52.61,206.84,52.45Zm-7.17-1.84c1.05.19,2.07,1.66,2.63,2.35a13,13,0,0,1,1.43,2.21l0,.24a.76.76,0,0,0,0,.31v0a.71.71,0,0,1,0,.14,23.62,23.62,0,0,0-3.4-4.91c-.26-.54-1.64-.26-1.28.46.88,1.73,2,3.35,2.92,5.08.43.81.82,1.63,1.19,2.45q-1.78-2.74-3.56-5.5C199.18,52.91,197.49,50.22,199.67,50.61Z"/><path id="_Trazado_" data-name="&lt;Trazado&gt;" class="cls-1" d="M219.4,46.53A2.12,2.12,0,0,0,218,45.08a2,2,0,0,0-1.29.11,1.87,1.87,0,0,0-.74.54l0,0,0,0a1.54,1.54,0,0,0-.19.17,2.06,2.06,0,0,0-.5.56,1.27,1.27,0,0,0-.39,1.29,1.31,1.31,0,0,0,.94.91,1.91,1.91,0,0,0,.7.26h0a2.21,2.21,0,0,0,.35.08l-.05,0a2,2,0,0,0,1.89-.31A2,2,0,0,0,219.4,46.53Z"/><path id="_Trazado_2" data-name="&lt;Trazado&gt;" class="cls-1" d="M210.64,38.4a.94.94,0,0,0-.37-.37l-.22-.16a1.16,1.16,0,0,0-1.18,0,1.19,1.19,0,0,0-.59,1,1.21,1.21,0,0,0,.6,1,1.18,1.18,0,0,0,1.18,0l.22-.16a1.06,1.06,0,0,0,.5-.87A1,1,0,0,0,210.64,38.4Z"/><path d="M178.39,11.21a2.31,2.31,0,0,1-.11-1.73q.08-.25.18-.57l.21-.62.21-.6c.07-.19.13-.36.19-.51a2.84,2.84,0,0,1,.7-1.24,2,2,0,0,1,1.1-.57,2.27,2.27,0,0,1,1,.12,3.43,3.43,0,0,1,1,.61,4.71,4.71,0,0,1,.79.82,6.37,6.37,0,0,1,.61.92,7.16,7.16,0,0,1,.42.9,5.92,5.92,0,0,1,.24.77.41.41,0,0,1,.14.22.26.26,0,0,1,0,.2c0,.13.06.29.09.47s0,.32,0,.4a.38.38,0,0,1-.11.37,1,1,0,0,1-.26.15.59.59,0,0,1-.29,0c-.1,0-.16-.09-.17-.16a.37.37,0,0,1,0-.12s0-.09,0-.14a7.31,7.31,0,0,1-.61.52,4.27,4.27,0,0,1-.59.39,3.39,3.39,0,0,1-.79.28,5.53,5.53,0,0,1-1.52.11l-.62,0a2.8,2.8,0,0,1-1.06-.29A2,2,0,0,1,178.39,11.21ZM179,11a1.4,1.4,0,0,0,.95.52,6.46,6.46,0,0,0,1.58,0,3.87,3.87,0,0,0,1.32-.35,3.27,3.27,0,0,0,.78-.51,4.93,4.93,0,0,0,.73-.81,5.47,5.47,0,0,0-.26-.83,10.35,10.35,0,0,0-.45-1,7.7,7.7,0,0,0-.62-.91,3.43,3.43,0,0,0-.76-.72,2.33,2.33,0,0,0-.74-.43,1.48,1.48,0,0,0-.6-.07,1,1,0,0,0-.72.38,2.87,2.87,0,0,0-.47.91c-.07.18-.14.38-.22.61l-.24.69c-.08.24-.15.47-.21.7s-.11.42-.14.59a2.46,2.46,0,0,0-.07.64A1,1,0,0,0,179,11Zm4.44-2a.24.24,0,0,1-.15.13.27.27,0,0,1-.23,0,.4.4,0,0,0-.16-.07h-.15a4.55,4.55,0,0,0-.71.24,5.32,5.32,0,0,0-.79.41l-.25.2a.77.77,0,0,0-.25.4c0,.06,0,.14,0,.22a.34.34,0,0,1-.11.24.45.45,0,0,1-.23.07.32.32,0,0,1-.21-.09.33.33,0,0,1-.09-.25,7,7,0,0,1,0-.81,7.31,7.31,0,0,1,0-.77s-.07,0-.07-.07a.14.14,0,0,1,0-.11,1.19,1.19,0,0,0,.08-.16l.08-.16a.19.19,0,0,1,.15-.16.41.41,0,0,1,.22,0,.39.39,0,0,1,.17.11.19.19,0,0,1,0,.19c0,.11,0,.25-.06.41s0,.29,0,.4a1.71,1.71,0,0,1,.24-.21l.45-.26.5-.23a3.81,3.81,0,0,1,.51-.17,3,3,0,0,1,.46-.08,1,1,0,0,1,.31.05l.21.09a.34.34,0,0,1,.11.25A.31.31,0,0,1,183.4,9Z"/></svg>