<svg id="Capa_1" data-name="Capa 1" xmlns="http://www.w3.org/2000/svg" viewBox="0 0 215.169 83.842">
  <defs>
    <style>
      .cls-1 {
        fill: #898b8c;
        fill-rule: evenodd;
      }
    </style>
  </defs>
  <title>81701236-2a26-4667-b0f5-b771db7368b8</title>
  <g id="_Group_" data-name="&lt;Group&gt;">
    <g id="_Group_2" data-name="&lt;Group&gt;">
      <path id="_Compound_Path_" data-name="&lt;Compound Path&gt;" class="cls-1" d="M54.619,25.367L54.748,25.5l0.308,0.5L55.742,26.2l-0.384.581,0.705,0.393-0.55.614-0.136.3-0.325.173-0.911-.316-1.344.27-0.252-.276,1.316-.385L53.543,27.3l-0.307.029-0.374-.076,0.113-.238,0.645-.174-0.57-.309,0.145-.261,0.512,0.057,0.522,0.153L53.7,25.6l0.145-.239,0.77,0h0Zm-1.042-.013-0.2-.009,0.11,0.026,0.094-.017h0ZM46.066,76.061l2.94,1L51.5,75.237l-0.065,3.05,2.544,1.759L51,80.927l-0.921,2.914-1.778-2.5-3.113.042,1.882-2.43-1-2.888h0ZM89.7,38.482h-0.2v8.746H83.744V28.091a0.722,0.722,0,0,1,.812-0.823h15.784a10.919,10.919,0,0,1,3.512.494,5.839,5.839,0,0,1,2.337,1.412,5.442,5.442,0,0,1,1.3,2.235,10.035,10.035,0,0,1,.406,2.961v1.618a7.035,7.035,0,0,1-1.693,5.141q-1.693,1.713-5.583,1.713H91.412L89.7,38.482h0Zm84,11.661a1.139,1.139,0,1,1-1.162,1.138,1.15,1.15,0,0,1,1.162-1.138h0Zm36.732,1.5h-0.051v2.278h-1.5V48.94a0.188,0.188,0,0,1,.211-0.214h4.11a2.843,2.843,0,0,1,.915.129,1.521,1.521,0,0,1,.609.368,1.417,1.417,0,0,1,.339.582,2.615,2.615,0,0,1,.106.771V51a1.832,1.832,0,0,1-.441,1.339,1.986,1.986,0,0,1-1.454.446h-2.4l-0.444-1.135h0Zm0.044-1.621a0.086,0.086,0,0,0-.095.1V51.51h2.631a0.722,0.722,0,0,0,.51-0.143,0.629,0.629,0,0,0,.146-0.464V50.646a0.646,0.646,0,0,0-.146-0.493,0.779,0.779,0,0,0-.51-0.129h-2.536Zm-8.826-1.3h1.5v3.049a0.67,0.67,0,0,0,.787.8h2a0.848,0.848,0,0,0,.609-0.182,0.868,0.868,0,0,0,.186-0.632V48.726h1.5V51.86a2.968,2.968,0,0,1-.117.868,1.536,1.536,0,0,1-1.038,1.057,3.181,3.181,0,0,1-1.009.139h-2.267a3.154,3.154,0,0,1-1-.139,1.536,1.536,0,0,1-1.039-1.057,2.969,2.969,0,0,1-.117-0.868V48.726h0Zm-0.59,3.135a2.917,2.917,0,0,1-.117.853,1.606,1.606,0,0,1-.372.65,1.678,1.678,0,0,1-.667.414,3.009,3.009,0,0,1-1,.146h-2.361a3.042,3.042,0,0,1-1.006-.146,1.675,1.675,0,0,1-.67-0.414,1.605,1.605,0,0,1-.372-0.65,2.92,2.92,0,0,1-.117-0.853V50.789a2.92,2.92,0,0,1,.117-0.853,1.606,1.606,0,0,1,.372-0.65,1.677,1.677,0,0,1,.67-0.414,3.043,3.043,0,0,1,1.006-.146H198.9a3.01,3.01,0,0,1,1,.146,1.679,1.679,0,0,1,.667.414,1.605,1.605,0,0,1,.372.65,2.916,2.916,0,0,1,.117.853V51.86h0Zm-5.182-.129a1.42,1.42,0,0,0,.055.436,0.5,0.5,0,0,0,.175.254,0.716,0.716,0,0,0,.313.121,2.985,2.985,0,0,0,.477.032h1.866a1.33,1.33,0,0,0,.4-0.05,0.473,0.473,0,0,0,.244-0.168,0.726,0.726,0,0,0,.12-0.318,3.12,3.12,0,0,0,.033-0.493V50.861a0.915,0.915,0,0,0-.182-0.657,0.858,0.858,0,0,0-.612-0.179h-2.092a1.327,1.327,0,0,0-.4.05,0.473,0.473,0,0,0-.244.168,0.722,0.722,0,0,0-.12.314,3.038,3.038,0,0,0-.033.489v0.685h0Zm-6.574-.314v2.506h-1.5V48.94a0.185,0.185,0,0,1,.2-0.214h4.147a2.675,2.675,0,0,1,.838.114,1.35,1.35,0,0,1,.554.332,1.283,1.283,0,0,1,.306.525,2.345,2.345,0,0,1,.095.693v0.371a2.248,2.248,0,0,1-.095.678,1.252,1.252,0,0,1-.3.51,1.371,1.371,0,0,1-.536.325,2.456,2.456,0,0,1-.8.114h-0.346q-0.084,0-.164-0.007v0.05q0.095,0.086.189,0.189t0.182,0.211l0.845,1.035v0.057h-1.691l-1.873-2.506H189.3Zm0.1-1.392a0.1,0.1,0,0,0-.1.121v1.135h2.58a0.635,0.635,0,0,0,.426-0.114,0.576,0.576,0,0,0,.128-0.436V50.554a0.541,0.541,0,0,0-.128-0.414,0.635,0.635,0,0,0-.426-0.114h-2.478ZM185.689,51.7c0-.076,0-0.156-0.011-0.239s-0.026-.155-0.026-0.218V51.175h1.487v2.549a0.169,0.169,0,0,1-.182.2h-3.994a3.042,3.042,0,0,1-1.006-.146,1.675,1.675,0,0,1-.671-0.414,1.605,1.605,0,0,1-.372-0.65,2.92,2.92,0,0,1-.117-0.853V50.789a2.92,2.92,0,0,1,.117-0.853,1.607,1.607,0,0,1,.372-0.65,1.676,1.676,0,0,1,.671-0.414,3.043,3.043,0,0,1,1.006-.146h3.972a0.188,0.188,0,0,1,.211.214v1.121l-1.392.5H185.7v-0.5a0.061,0.061,0,0,0-.066-0.071h-2.536a1.478,1.478,0,0,0-.368.039,0.518,0.518,0,0,0-.244.136,0.573,0.573,0,0,0-.138.257,1.534,1.534,0,0,0-.044.4v0.914a0.931,0.931,0,0,0,.182.657,0.835,0.835,0,0,0,.612.186h2.514a0.073,0.073,0,0,0,.08-0.086V51.7h0Zm-24.794-2.97V52.4a0.2,0.2,0,0,0,.036.129,0.177,0.177,0,0,0,.138.043h4.154v1.357H159.78a0.373,0.373,0,0,1-.3-0.1,0.448,0.448,0,0,1-.087-0.3v-4.8h1.5ZM153,53.924h-1.735V53.867l2.66-4.97a0.393,0.393,0,0,1,.1-0.136,0.318,0.318,0,0,1,.175-0.036h1.829a0.338,0.338,0,0,1,.179.036,0.364,0.364,0,0,1,.113.136l2.638,4.97v0.057h-4.541L153.986,52.8V52.653h1.891q0.171,0,.3,0t0.233,0.011l0.2,0.014,0.022-.05q-0.044-.078-0.091-0.153c-0.032-.05-0.067-0.111-0.106-0.182l-0.139-.257q-0.08-.15-0.2-0.378l-0.838-1.642a0.1,0.1,0,0,0-.1-0.05h-0.087a0.1,0.1,0,0,0-.095.05L153,53.924h0Zm-6.239-5.2a0.42,0.42,0,0,1,.237.05,0.459,0.459,0,0,1,.127.157l2.012,3.734a0.15,0.15,0,0,0,.138.086h0.08a0.1,0.1,0,0,0,.117-0.114V48.726h1.363v4.991a0.182,0.182,0,0,1-.2.207h-2.157a0.483,0.483,0,0,1-.23-0.043,0.408,0.408,0,0,1-.142-0.164l-2.084-3.727a0.149,0.149,0,0,0-.138-0.086h-0.073a0.1,0.1,0,0,0-.117.114v3.906h-1.363V48.94a0.185,0.185,0,0,1,.2-0.214h2.23Zm-3.054,3.135a2.915,2.915,0,0,1-.117.853,1.607,1.607,0,0,1-.372.65,1.678,1.678,0,0,1-.667.414,3.01,3.01,0,0,1-1,.146h-2.361a3.042,3.042,0,0,1-1.006-.146,1.675,1.675,0,0,1-.671-0.414,1.605,1.605,0,0,1-.372-0.65,2.92,2.92,0,0,1-.117-0.853V50.789a2.92,2.92,0,0,1,.117-0.853,1.607,1.607,0,0,1,.372-0.65,1.676,1.676,0,0,1,.671-0.414,3.043,3.043,0,0,1,1.006-.146h2.361a3.011,3.011,0,0,1,1,.146,1.679,1.679,0,0,1,.667.414,1.606,1.606,0,0,1,.372.65,2.915,2.915,0,0,1,.117.853V51.86h0Zm-5.182-.129a1.42,1.42,0,0,0,.055.436,0.5,0.5,0,0,0,.175.254,0.716,0.716,0,0,0,.313.121,2.985,2.985,0,0,0,.477.032h1.866a1.331,1.331,0,0,0,.4-0.05,0.473,0.473,0,0,0,.244-0.168,0.727,0.727,0,0,0,.12-0.318,3.12,3.12,0,0,0,.033-0.493V50.861a0.915,0.915,0,0,0-.182-0.657,0.858,0.858,0,0,0-.612-0.179h-2.092a1.328,1.328,0,0,0-.4.05,0.474,0.474,0,0,0-.244.168,0.723,0.723,0,0,0-.12.314,3.043,3.043,0,0,0-.033.489v0.685h0Zm-3.615,2.192v-5.2h1.5v5.2h-1.5Zm-3.535-3.9v3.9h-1.5v-3.9h-2.2l-0.488-1.242V48.726h7.033a0.188,0.188,0,0,1,.211.214v1.35l-1.392.507h-0.058V50.1a0.07,0.07,0,0,0-.08-0.079h-1.523Zm-8.52,3.9,1.975-3.906a0.1,0.1,0,0,1,.095-0.05h0.087a0.1,0.1,0,0,1,.1.05l0.838,1.642q0.116,0.229.2,0.378l0.139,0.257c0.039,0.071.074,0.132,0.106,0.182s0.062,0.1.091,0.153l-0.022.05-0.2-.014q-0.1-.007-0.233-0.011t-0.3,0h-1.891V52.8l0.437,1.128h4.541V53.867l-2.638-4.97a0.364,0.364,0,0,0-.113-0.136,0.338,0.338,0,0,0-.179-0.036h-1.829a0.318,0.318,0,0,0-.175.036,0.393,0.393,0,0,0-.1.136l-2.66,4.97v0.057h1.735Zm-6.239-5.2a0.42,0.42,0,0,1,.237.05,0.459,0.459,0,0,1,.127.157L119,52.667a0.15,0.15,0,0,0,.138.086h0.08a0.1,0.1,0,0,0,.117-0.114V48.726h1.363v4.991a0.182,0.182,0,0,1-.2.207h-2.157a0.483,0.483,0,0,1-.23-0.043,0.409,0.409,0,0,1-.142-0.164l-2.084-3.727a0.149,0.149,0,0,0-.138-0.086h-0.073a0.1,0.1,0,0,0-.117.114v3.906h-1.363V48.94a0.185,0.185,0,0,1,.2-0.214h2.23Zm-7.572,2.692v2.506h-1.5V48.94a0.185,0.185,0,0,1,.2-0.214H111.9a2.675,2.675,0,0,1,.838.114,1.35,1.35,0,0,1,.554.332,1.283,1.283,0,0,1,.306.525,2.345,2.345,0,0,1,.095.693v0.371a2.248,2.248,0,0,1-.095.678,1.252,1.252,0,0,1-.3.51,1.37,1.37,0,0,1-.536.325,2.456,2.456,0,0,1-.8.114h-0.346q-0.084,0-.164-0.007v0.05q0.095,0.086.189,0.189t0.182,0.211l0.845,1.035v0.057h-1.691L109.1,51.417h-0.051Zm0.1-1.392a0.1,0.1,0,0,0-.1.121v1.135h2.58a0.635,0.635,0,0,0,.426-0.114,0.576,0.576,0,0,0,.128-0.436V50.554a0.541,0.541,0,0,0-.128-0.414,0.635,0.635,0,0,0-.426-0.114h-2.478Zm-6.778.893H102.32v1.557a0.089,0.089,0,0,0,.1.1H106.9v1.35H101.03a0.188,0.188,0,0,1-.211-0.214V48.94a0.188,0.188,0,0,1,.211-0.214h5.7a0.191,0.191,0,0,1,.219.214v1.35l-1.392.507H105.5V50.1a0.067,0.067,0,0,0-.073-0.079h-3.01a0.081,0.081,0,0,0-.076.032,0.136,0.136,0,0,0-.018.068v0.65H104.8v1.057h-2.077l-0.35-.914h0Zm-5.087-.893v3.9h-1.5v-3.9h-2.2l-0.488-1.242V48.726h7.033a0.188,0.188,0,0,1,.211.214v1.35l-1.392.507H98.888V50.1a0.07,0.07,0,0,0-.08-0.079H97.284Zm-8.622-1.3a0.42,0.42,0,0,1,.237.05,0.459,0.459,0,0,1,.127.157l2.012,3.734a0.151,0.151,0,0,0,.138.086h0.08a0.1,0.1,0,0,0,.117-0.114V48.726h1.363v4.991a0.182,0.182,0,0,1-.2.207H90.375a0.483,0.483,0,0,1-.23-0.043A0.408,0.408,0,0,1,90,53.717l-2.084-3.727a0.149,0.149,0,0,0-.138-0.086H87.708a0.1,0.1,0,0,0-.117.114v3.906H86.228V48.94a0.185,0.185,0,0,1,.2-0.214h2.23Zm-4.613,5.2v-5.2h1.5v5.2h-1.5ZM215.106,39.3a11.2,11.2,0,0,1-.448,3.276,6.163,6.163,0,0,1-1.427,2.495,6.445,6.445,0,0,1-2.561,1.59,11.556,11.556,0,0,1-3.848.562h-9.067a11.682,11.682,0,0,1-3.862-.562,6.436,6.436,0,0,1-2.575-1.59,6.164,6.164,0,0,1-1.427-2.495,11.2,11.2,0,0,1-.448-3.276V35.192a11.2,11.2,0,0,1,.448-3.276,6.163,6.163,0,0,1,1.427-2.495,6.436,6.436,0,0,1,2.575-1.59,11.68,11.68,0,0,1,3.862-.562h9.067a11.554,11.554,0,0,1,3.848.562,6.445,6.445,0,0,1,2.561,1.59,6.162,6.162,0,0,1,1.427,2.495,11.2,11.2,0,0,1,.448,3.276V39.3h0Zm-19.9-.493a5.441,5.441,0,0,0,.21,1.672,1.93,1.93,0,0,0,.672.973,2.75,2.75,0,0,0,1.2.466,11.447,11.447,0,0,0,1.833.123h7.164a5.106,5.106,0,0,0,1.525-.192,1.814,1.814,0,0,0,.938-0.644,2.784,2.784,0,0,0,.462-1.22,11.954,11.954,0,0,0,.126-1.892V35.466a3.511,3.511,0,0,0-.7-2.522,3.293,3.293,0,0,0-2.351-.685h-8.032a5.109,5.109,0,0,0-1.525.192,1.816,1.816,0,0,0-.937.644,2.766,2.766,0,0,0-.462,1.206,11.684,11.684,0,0,0-.126,1.878v2.632h0ZM176.57,32.258v14.97h-5.765V32.258h-8.451l-1.875-4.771V27.268h27.005a0.722,0.722,0,0,1,.812.823v5.182l-5.345,1.947h-0.224V32.56a0.269,0.269,0,0,0-.308-0.3H176.57ZM160.787,39.3V35.192a11.2,11.2,0,0,0-.448-3.276,6.162,6.162,0,0,0-1.427-2.495,6.445,6.445,0,0,0-2.561-1.59,11.554,11.554,0,0,0-3.848-.562h-9.067a11.68,11.68,0,0,0-3.862.562A6.435,6.435,0,0,0,137,29.42a6.163,6.163,0,0,0-1.427,2.495,11.2,11.2,0,0,0-.448,3.276V39.3a11.2,11.2,0,0,0,.448,3.276A6.164,6.164,0,0,0,137,45.076a6.435,6.435,0,0,0,2.575,1.59,11.682,11.682,0,0,0,3.862.562H152.5a11.556,11.556,0,0,0,3.848-.562,6.445,6.445,0,0,0,2.561-1.59,6.163,6.163,0,0,0,1.427-2.495,11.2,11.2,0,0,0,.448-3.276h0Zm-19.9-.493V36.179a11.684,11.684,0,0,1,.126-1.878,2.766,2.766,0,0,1,.462-1.206,1.816,1.816,0,0,1,.937-0.644,5.109,5.109,0,0,1,1.525-.192h8.032a3.293,3.293,0,0,1,2.351.685,3.511,3.511,0,0,1,.7,2.522V38.1a11.954,11.954,0,0,1-.126,1.892,2.784,2.784,0,0,1-.462,1.22,1.815,1.815,0,0,1-.937.644,5.107,5.107,0,0,1-1.525.192h-7.164a11.447,11.447,0,0,1-1.833-.123,2.75,2.75,0,0,1-1.2-.466,1.93,1.93,0,0,1-.672-0.973,5.441,5.441,0,0,1-.21-1.672h0ZM115.647,37.6v9.623h-5.765V28.091a0.71,0.71,0,0,1,.784-0.823h15.923a10.26,10.26,0,0,1,3.218.439,5.189,5.189,0,0,1,2.127,1.275A4.933,4.933,0,0,1,133.11,31a9.009,9.009,0,0,1,.364,2.66v1.426a8.635,8.635,0,0,1-.364,2.6,4.8,4.8,0,0,1-1.161,1.96,5.264,5.264,0,0,1-2.057,1.248,9.427,9.427,0,0,1-3.078.439h-1.329q-0.322,0-.63-0.027V41.5q0.364,0.329.728,0.727t0.7,0.809l3.246,3.975v0.219h-6.493L115.843,37.6h-0.2Zm0.392-5.346a0.383,0.383,0,0,0-.392.466v4.359h9.907a2.439,2.439,0,0,0,1.637-.439,2.211,2.211,0,0,0,.49-1.672V34.287a2.078,2.078,0,0,0-.49-1.59,2.439,2.439,0,0,0-1.637-.439h-9.515Zm-26.166,0a0.331,0.331,0,0,0-.364.384v5.319h10.1a2.769,2.769,0,0,0,1.959-.548,2.415,2.415,0,0,0,.56-1.782V34.643a2.48,2.48,0,0,0-.56-1.892,2.988,2.988,0,0,0-1.959-.494H89.873ZM32.72,39.737l1.718,2.544,3.114,0.028L35.612,44.7l0.935,2.91-2.916-1.069-2.536,1.77,0.136-3.048-2.5-1.816,3-.815,0.99-2.892h0Zm1.955-15.662L35.849,26.9,38.9,27.529,36.516,29.5l0.332,3.033L34.2,30.918l-2.842,1.247L32.107,29.2l-2.088-2.263,3.106-.221,1.551-2.645h0ZM34.594,54.963l2.46,1.87,2.958-.952-1.054,2.87L40.8,61.212l-3.112-.1-1.822,2.474-0.869-2.929-2.964-.933L34.6,58.013l-0.01-3.05h0ZM39.067,67.3l0.489,3.012L37.28,72.4l3.076,0.475,1.319,2.763,1.412-2.719,3.09-.375-2.2-2.156,0.591-2.995-2.774,1.387L39.067,67.3h0ZM65.386,14.56C61.872,3.968,48.667-1.35,34.726.294,20.657,2.8,8.661,8.681,2.043,26.331S5.193,71.025,26.83,78.812a42.552,42.552,0,0,0,16.96,2.322l2.1-2.714-0.126-.361a39.237,39.237,0,0,1-17.879-2.066A38.14,38.14,0,0,1,3.933,50.477c4.856,7.856,14.116,15.1,25.951,19.359a63.232,63.232,0,0,0,6.31,1.908l2.2-2.012-0.123-.758a57.716,57.716,0,0,1-7.276-2.094C13.768,60.681,2.361,47.545,2.849,35.668A37.164,37.164,0,0,1,3.99,30.183C4.8,41.023,15.341,52.667,30.933,59.067l2.527-1.683,0-.723C14.713,49.433,3.476,33.6,8.257,20.851q0.122-.326.257-0.646A37.641,37.641,0,0,1,11.7,15.941C9.2,24.91,15.695,35.518,27.309,42.824l3.343-.908,0.215-.627C18.642,34.313,11.817,23.531,15.081,14.827A13.36,13.36,0,0,1,18.5,9.765a39.125,39.125,0,0,1,8.088-4.406A11.994,11.994,0,0,0,23.647,9.79c-1.966,5.244.125,11.292,4.972,16.425l3.478-.247,0.344-.586c-5.06-4.648-7.417-10.31-5.612-15.124C28.309,6.313,32.294,3.707,37.5,2.711a39.192,39.192,0,0,1,9.5.25c-5,.09-9.149,2.2-10.515,5.842-2.013,5.37,2.781,12.035,10.707,14.888s15.984,0.812,18-4.558a7.613,7.613,0,0,0,.2-4.573h0Zm-1.4,1.525a0.485,0.485,0,1,1-.495.485,0.49,0.49,0,0,1,.495-0.485h0ZM37.98,9.13a0.485,0.485,0,1,1-.495.485A0.49,0.49,0,0,1,37.98,9.13h0Zm8.737,12.121a0.485,0.485,0,1,1-.495.485,0.49,0.49,0,0,1,.495-0.485h0ZM49.908,22.4a0.485,0.485,0,1,1-.495.485,0.49,0.49,0,0,1,.495-0.485h0Zm3.447,0.451a0.485,0.485,0,1,1-.495.485,0.49,0.49,0,0,1,.495-0.485h0ZM37.3,12.352a1.443,1.443,0,0,0,.056.241,0.459,0.459,0,0,0,.063.126,0.12,0.12,0,0,0,.065.048,0.168,0.168,0,0,0,.059,0,0.132,0.132,0,0,0,.08-0.038,0.16,0.16,0,0,0,.036-0.085,0.638,0.638,0,0,0,0-.145q-0.007-.089-0.024-0.213c-0.006-.048-0.012-0.106-0.019-0.172a1.667,1.667,0,0,1-.008-0.206A1.286,1.286,0,0,1,37.63,11.7a0.6,0.6,0,0,1,.074-0.2,0.5,0.5,0,0,1,.145-0.154,0.554,0.554,0,0,1,.236-0.087l0.038-.006a0.681,0.681,0,0,1,.25.007,0.5,0.5,0,0,1,.229.121,0.818,0.818,0,0,1,.187.269,1.746,1.746,0,0,1,.125.449l0.017,0.1a2.957,2.957,0,0,1,.038.39,3.026,3.026,0,0,1-.013.377l-0.486.076q0.016-.218.012-0.429a3,3,0,0,0-.038-0.424,1.485,1.485,0,0,0-.056-0.243,0.46,0.46,0,0,0-.063-0.128,0.123,0.123,0,0,0-.062-0.048,0.144,0.144,0,0,0-.056,0,0.138,0.138,0,0,0-.081.038,0.156,0.156,0,0,0-.037.087,0.656,0.656,0,0,0,0,.145q0.007,0.088.023,0.209c0.006,0.046.012,0.1,0.019,0.165a1.548,1.548,0,0,1,.009.2,1.2,1.2,0,0,1-.024.216,0.636,0.636,0,0,1-.075.2,0.5,0.5,0,0,1-.146.157,0.553,0.553,0,0,1-.237.089l-0.038.006a0.669,0.669,0,0,1-.249-0.007,0.5,0.5,0,0,1-.228-0.123,0.833,0.833,0,0,1-.187-0.27,1.745,1.745,0,0,1-.126-0.45l-0.017-.1a3.861,3.861,0,0,1-.047-0.446q-0.01-.219,0-0.433l0.494-.077q-0.015.242-.007,0.5a3.729,3.729,0,0,0,.044.476h0Zm2.2,1.824-1.841.758-0.208-.484,1.841-.758L39.5,14.175h0Zm0.19,2.651,1.032-.744,0.318,0.423-1.608,1.159-0.318-.423,0.412-1.569-1.032.744-0.318-.423,1.608-1.159L40.1,15.257l-0.412,1.569h0Zm1.231,0.908a1.385,1.385,0,0,1,.292-0.246,0.767,0.767,0,0,1,.336-0.115,0.853,0.853,0,0,1,.387.062,1.523,1.523,0,0,1,.443.285l0.08,0.07a2.971,2.971,0,0,1,.277.275,3.146,3.146,0,0,1,.232.3l-0.323.355q-0.058-.09-0.123-0.174t-0.133-.161q-0.068-.077-0.134-0.142c-0.044-.044-0.085-0.082-0.122-0.114a1.164,1.164,0,0,0-.3-0.2,0.38,0.38,0,0,0-.218-0.032,0.362,0.362,0,0,0-.174.091q-0.079.072-.164,0.165t-0.149.179a0.325,0.325,0,0,0-.016.391,1.14,1.14,0,0,0,.239.266q0.056,0.049.13,0.105t0.16,0.114q0.086,0.057.18,0.11t0.192,0.1l-0.325.357a3.628,3.628,0,0,1-.327-0.193,2.994,2.994,0,0,1-.31-0.238l-0.08-.07a1.494,1.494,0,0,1-.34-0.4,0.808,0.808,0,0,1-.107-0.369,0.729,0.729,0,0,1,.078-0.34,1.362,1.362,0,0,1,.216-0.312l0.1-.113h0Zm4.051,2.5L43.824,19.5l-0.163.244,0.9,0.578-0.261.391-0.9-.578-0.147.22L44.4,21.088l-0.261.391-1.6-1.026,1.095-1.636,1.6,1.026-0.261.391h0Zm11.14,3.894-0.068-.462,0.678-.1-0.118-.8-0.567.443-0.072-.491,0.945-.738,0.118-.017L57.254,23.5l0.5-.071,0.068,0.462-1.714.242h0Zm3.577-.788q-0.075.028-.161,0.054t-0.174.045q-0.088.019-.174,0.032a1.279,1.279,0,0,1-.158.016l-0.178-.455a1.184,1.184,0,0,0,.168-0.008q0.09-.01.181-0.027t0.175-.041c0.057-.016.107-0.032,0.152-0.049a0.75,0.75,0,0,0,.2-0.105,0.316,0.316,0,0,0,.1-0.123,0.278,0.278,0,0,0,.019-0.143,0.88,0.88,0,0,0-.037-0.163,0.713,0.713,0,0,1-.161.115,1.859,1.859,0,0,1-.214.094,1.57,1.57,0,0,1-.456.112,0.656,0.656,0,0,1-.3-0.044A0.405,0.405,0,0,1,58.5,22.5a1.1,1.1,0,0,1-.1-0.2l-0.014-.035a0.782,0.782,0,0,1-.054-0.232,0.41,0.41,0,0,1,.052-0.226,0.682,0.682,0,0,1,.2-0.217,1.7,1.7,0,0,1,.4-0.2l0.1-.039a0.966,0.966,0,0,1,.406-0.072,0.671,0.671,0,0,1,.315.1,0.8,0.8,0,0,1,.237.235,1.686,1.686,0,0,1,.171.33l0.055,0.142a1.592,1.592,0,0,1,.1.368,0.773,0.773,0,0,1-.027.34,0.712,0.712,0,0,1-.189.295,1.12,1.12,0,0,1-.392.23l-0.07.026h0Zm-0.55-1.513a0.753,0.753,0,0,1,.194-0.05,0.32,0.32,0,0,1,.14.016,0.244,0.244,0,0,1,.1.074,0.592,0.592,0,0,1,.077.123,1.29,1.29,0,0,1-.139.074q-0.075.034-.166,0.069a1.414,1.414,0,0,1-.22.067,0.414,0.414,0,0,1-.131.008,0.107,0.107,0,0,1-.069-0.033,0.209,0.209,0,0,1-.033-0.056,0.261,0.261,0,0,1-.015-0.058,0.111,0.111,0,0,1,.015-0.071,0.264,0.264,0,0,1,.076-0.079,0.7,0.7,0,0,1,.167-0.083h0Zm3.094,0.091q-0.062.051-.134,0.1t-0.149.1q-0.077.046-.153,0.087a1.265,1.265,0,0,1-.144.066L61.332,21.9a1.165,1.165,0,0,0,.155-0.062q0.082-.039.162-0.084t0.152-.1c0.048-.033.09-0.065,0.127-0.1a0.74,0.74,0,0,0,.155-0.164,0.312,0.312,0,0,0,.052-0.148,0.277,0.277,0,0,0-.03-0.141,0.89,0.89,0,0,0-.089-0.142,0.691,0.691,0,0,1-.113.16,1.818,1.818,0,0,1-.17.158,1.541,1.541,0,0,1-.393.252,0.655,0.655,0,0,1-.294.054,0.413,0.413,0,0,1-.219-0.082,1.13,1.13,0,0,1-.167-0.158l-0.025-.029a0.8,0.8,0,0,1-.129-0.2,0.409,0.409,0,0,1-.027-0.23,0.673,0.673,0,0,1,.12-0.271A1.672,1.672,0,0,1,60.91,20.3l0.084-.07a0.952,0.952,0,0,1,.359-0.2,0.676,0.676,0,0,1,.332-0.007,0.818,0.818,0,0,1,.3.145,1.73,1.73,0,0,1,.272.257l0.1,0.116a1.618,1.618,0,0,1,.216.316,0.775,0.775,0,0,1,.089.329,0.7,0.7,0,0,1-.08.339,1.1,1.1,0,0,1-.293.343l-0.057.047h0Zm-1.028-1.251a0.738,0.738,0,0,1,.167-0.109,0.316,0.316,0,0,1,.138-0.03,0.248,0.248,0,0,1,.122.037,0.609,0.609,0,0,1,.113.091,1.256,1.256,0,0,1-.106.114q-0.059.056-.134,0.118a1.388,1.388,0,0,1-.185.134,0.412,0.412,0,0,1-.121.05,0.108,0.108,0,0,1-.076-0.009,0.212,0.212,0,0,1-.05-0.043,0.272,0.272,0,0,1-.034-0.05,0.111,0.111,0,0,1-.01-0.072,0.259,0.259,0,0,1,.046-0.1,0.69,0.69,0,0,1,.13-0.132h0Zm2.87-2.038L64.5,18.837l-0.8,1.584-0.558-.27a0.589,0.589,0,0,1-.2-0.15,0.493,0.493,0,0,1-.1-0.182,0.567,0.567,0,0,1-.018-0.2,1.062,1.062,0,0,1,.034-0.2,1.231,1.231,0,0,1,.061-0.174l0.062-.139a1.064,1.064,0,0,0,.1-0.271A0.126,0.126,0,0,0,63,18.7a0.161,0.161,0,0,0-.054-0.015,0.118,0.118,0,0,0-.069.019,0.326,0.326,0,0,0-.087.08,0.952,0.952,0,0,0-.1.171,2.437,2.437,0,0,0-.145.355,3.716,3.716,0,0,0-.1.374L62,19.474a2.345,2.345,0,0,1,.082-0.323,2.378,2.378,0,0,1,.135-0.324l0.048-.094a1.458,1.458,0,0,1,.237-0.354,0.745,0.745,0,0,1,.248-0.178A0.5,0.5,0,0,1,63,18.163a0.738,0.738,0,0,1,.239.07L63.27,18.25a0.592,0.592,0,0,1,.2.148,0.49,0.49,0,0,1,.1.179,0.536,0.536,0,0,1,.019.193,1.05,1.05,0,0,1-.034.193,1.424,1.424,0,0,1-.061.177q-0.035.082-.063,0.144a1.073,1.073,0,0,0-.1.274,0.124,0.124,0,0,0,.082.134l0.1,0.049,0.561-1.112h0ZM53.437,6.036c6.135,2.208,9.951,8.064,8.523,11.872s-7.558,5.105-13.694,2.9-9.951-7.085-8.524-10.893S47.3,3.828,53.437,6.036h0Zm8.938,1.141-0.559.007,0.766,0.357,0.487,0.72,1.086,0.576,0.452,0.846-1.16-.916-0.942-.675L62.367,8.06a16.724,16.724,0,0,1,1.927,2.749l0.4,0.287,0.342,0.761L66.3,12.6l1.232,0.722-0.708-.069-0.954-.645,0.29,0.615-0.929-.432q0.22,0.566.4,1.158l0.692,0.364,0.972,0.848,0.2,0.361-1.256-.406L66.1,15.3l0.6,0.644,0.255,0.266-0.418-.023-0.185.525-0.3-.173a7.759,7.759,0,0,1-.073,1.076l0.092,0.456-0.177.042a7.655,7.655,0,0,1-.265.965l0.01,0.02,0.074,0.467-0.213-.141q-0.113.283-.249,0.556L65.4,20.139,65.235,20a7.706,7.706,0,0,1-.478.823A8.407,8.407,0,0,1,63.034,22.7l0.109,0.2,0.3,0.085,0.667-.548,0.509,0.253,0.111,0.272,0.277,0.146-0.609.14-0.436.248-0.517-.1,0.242,0.586,0.243,0.9-0.162.243-0.54-.264L63,25.187l0.285,1.007-0.289.267L63.005,26.8l-0.257.337L62.1,26.892l-0.138.241-1.469-.343-0.248.188-0.611.082-0.35-1.181,0.127-.371,0.242-.2-0.306-.539,0.011-.139q-0.289.093-.583,0.174l0.149,0.208-0.343.19-0.257.592L58.8,26.471l0.045,0.573-0.224.314-0.143.192-1.03-.22-0.21.307-0.3.067-0.149.492-1.047-.017-0.186.652-1.167-.107-0.252.42,0.013,0.248L53.2,29.221l-0.554.4,0.721,0.538,0.6,0.517,0.6,1.305-0.289.708-0.738.2-1.672-.718-1.8-.067,0.054,0.739-0.81,2.1,0.269,0.294-0.113.238,2.861,1.146,0.511-.291,0.54,0.171,0.658-.493,0.413-.408,0.21-.562,0.193-.579,0.742-.464,0.606,0.184,0.468-.933,0.873,0.291,0.215-.259,0.513,0.243,0.146-.261,0.423-.149,0.61,0.266,1.115,1.572,0.851,1.014,0.4,0.26,0.065,0.649,0.065,0.395,0.289,0.081,0.424-.659-0.044-.514,0.36-.044,0.152-.154-0.589-.606-0.656-.618L60.6,33.483l-0.328-.547,1.079-.006,0.748,0.814,1.155,0.392L63.8,35.286l0.277,0.935,0.6,0.762,0.583,0.245-0.37.481L64.91,38.2,65.7,37.58s0.387,0.011.33-.09-0.362-.675-0.417-0.811-0.262-.755-0.262-0.755l0.328-.589,0.377,0.194,0.326,0.361,0.165,0.22h0l1.024-.815-0.083-1.421,0.267-1.342s-0.076-.746.279-0.618a6.128,6.128,0,0,0,.683.2l0.042,0.456-0.208.192,0.193,0.307,0.081,0.4,0.433-.366,0.6-.1-0.709-.586L69.159,32l0.728-.017v0.5l0.236,0.334,0.778,0.5,0.413,0.589,0.23,0.744-0.233.241-1.373.063-0.865-.439-0.749.577-0.252.419-0.289-.081-1.214.707,0.379,0.508-0.082.5-0.15.526,0.255,0.173,0.871,0.232-0.03.3,1.249-.363,1.037-.369,0.276,0.4,0.008,1.336-0.616,1.645-0.567.155-0.484.185-1.888-.111-0.557.066-1.422-.848-0.878.1-0.659.273,0.776,0.709a1.8,1.8,0,0,1-.333.413C63.7,41.963,62.02,41.52,62.02,41.52l-0.853-1.072L59.111,39.3l0.677-.29,0.035-.787,0.145-.481-2.249-.218-2.3-.482-2.7.374-1.824-.564-0.47.875-0.5.261L48,38.828l0.037,0.848L47.513,40l-0.7-.055s-0.894.965-.966,1-2.029,1.183-2.029,1.183l-0.2.428-0.535.005-0.419.707-0.105,1.354-0.23,1.309-0.506.908-0.5.075L41.335,47.7l0.151,0.8,0.3,1.035L42.442,51l1.383,1.425L44.3,53.752l0.786,0.492,1.752-.065,1.223,0.463,2.6-.433,0.109,0.341,1.008-.1,0.443-.235,0.569,0.437,0.827,0.321-0.055.4-0.52,0,0.2,0.281,1.082,0.273,0.612-.243,0.508,0.159-0.042.426,0.231,0.269L55.659,57.1l-0.775.869L54.4,58.3l-0.128.5,0.15,0.39,0.258,0.418,0.364,0.513,0.017,0.714L55.5,61.353l-0.2.844,0.174,0.387-0.146.515-0.434,1.1-1,.824-0.254.488-0.353.059-0.45.7-0.074.576-0.132.416,0.007,0.9,0.032,0.673-0.226.6-0.642.986-0.07.218,0.28,0.611-0.071.694-0.624.877-0.2.207,0.258,0.29,4.6-.733,1.92-.607,0.4-.436,1.629-1.06,0.674-.662,0.132,0.233,0.619-.577,0.864-.82,0.264-.137L62.63,67.8l0.558-.1,0.218-.455,0.415,0.219L64.86,66.4l0.457-.461,0.991-.687,0.485-.219,0.9-2.528,0.482-.591,0.912-2.432,1.594-.841,1.057-2.565,1.515-2.4,0.082-.851,1.014-1.189,0.444-.49-0.22-.172-0.919.62-0.841.6-0.308-.946-0.107-.63-0.465-.654-0.5-.459,0.074-.669L71.022,48.2l0.06-1.266-0.2-.443,0.05-.7-0.722-.411-0.353-.857-0.142-1.2,0.439-.665,1.513,2.562-0.117.816,0.282,0.89,0.551,1.056,0.2,0.908-0.008,1.157,0.944-.055,0.579-.534,0.29-.522,1.208-.887,0.942-1.377,0.807-1.426,0.156-.859,0.1-.683-0.326-.488-0.412-.543-0.342.376-0.448.279-0.14.437-0.694.179,0.3-.346a1.432,1.432,0,0,0,.214-0.445c-0.044-.039-0.665-0.309-0.665-0.309l-0.149.4-0.047-.869-0.245-.7L74.47,41.3l0.189-.709,0.656,0.224,0.135,0.431,0.248,0.6L75.9,42.307l0.7-.339,0.12-.461,0.192,0.261,0.257,0.388,0.351-.147,0.2-.294-0.087-.368,0.54,0.217,0.359-.044,0.288-.215,0.321,0.643,0.2,0.159-0.193.58L79.5,42.8l0.3-.38-0.008.844,0.038,0.245-0.121.733-0.031,1-0.011.471L79.42,46.9l0.06,0.66c3.349-14.8-3.25-30.138-17.1-40.381h0Zm-0.53,8.646a4.6,4.6,0,0,1-.04,1.131,4.29,4.29,0,0,1-.593,1.582A6.331,6.331,0,0,1,57.4,21.084l-0.031-.123,0.676-.383,0.244-.271L58.7,20.325l0.014-.32,0.976-1.214-0.282-.415,0.049-.794,0.006-1,0.673-.5,0.712,0.152,0.062-.418,0.4-.378,0.4,0.294,0.136,0.085h0Zm-2.06,8.657a11.851,11.851,0,0,0,2.235-1.065l0.033,0.053-0.192.418-0.318-.068-0.376.213,0.383,1.251-1.111.911L59.785,24.48h0ZM43.351,7.348l0.69-.262L44.9,7.325l-0.511-.532L46.732,7.1l-0.345-.73q0.45-.038.9-0.045l0.067,0.05L48.154,6.6l0.6,0.032,0.783,0.815,1.427-.461,0.68,0.523-0.806.382,0.526,0.491,0.669-.269L52.37,8.484l-0.705.3-0.12.7-0.483.151,0.2,1.183-0.5.006,0.11,1.222-0.622-.108-1.2.495,0.687,1.2-0.627.03-0.668-.681,0.111,0.713-0.07.439,0.845-.044,0.227,0.406-0.774.232-2-.211-3.409,1.138-0.852-.19-0.07.439-0.541.246-0.039.028-0.017-.019a8.813,8.813,0,0,1-1.666-2.738l1.16-.7-0.579-.6,1.551-.16,0.134-.485L41.4,11.1l1.23,0,0.665-.132-0.028-.242-0.551-.36,1.708-1.334,0.1-.824-0.193-.371-0.976-.49h0Zm-8.8-3.441-0.537.39-0.307-.064q0.417-.174.843-0.326h0ZM33.334,4.4l-0.039.128,0.243,0.11-0.317.152-0.239.227,0.363,0.2,0.336-.3,0.873,0.071-0.128.278L34.092,5.24l-0.236.472-0.3-.085L33.8,5.982l0,0.279-0.15.306-0.032.244,1.193-.278,0.766-.084,0.36-.392,1.371-.214,0.72-.216,0.111,0.025a8.392,8.392,0,0,0-.621.643l-1.375.416-0.329.056-0.636.119L35.1,7.236l0.824-.179,0.274,0.122L36,7.4l-1.19.3-0.229.011V8.061l0.832-.072,1.141-.311q-0.16.293-.3,0.607l-0.392.11-0.246.341-1.642.024L33.7,8.506l-0.2.135-0.4-.515-0.342.155L32.941,8.5l-0.157.326L32,8.521,31.654,8.3,28.1,9.1l-0.489.45-0.086.084A11.277,11.277,0,0,1,33.334,4.4h0Zm-6,5.657,0.15,0.208L26.956,11.9l0.333,1.163-0.272.505-0.392-.191a9.653,9.653,0,0,1,.119-1.261,9.037,9.037,0,0,1,.458-1.725q0.064-.172.135-0.339h0Zm-0.692,4.324,2.536-.933,0.3-.508,0.448-.152,0.485-.695,1.274-.527,0.112-.331,1.055-.258L33,11.212l0.656,0.4L33.47,12.2l-0.5.436,0.092,0.323L32.59,14.172l0.758-.191,0.256-.209,0.229,0.082,0.247-.34,0.33,0.13,0.033,0.417-0.5.261-0.676,1.739-0.273-.029,0.035,1.184,0.588,0.374-0.253.361-0.819-.057,0.981,0.4-0.042.506-0.851.123-1.388.1-1.737-.544-1.294-.431-0.6.146a11.88,11.88,0,0,1-.962-3.821h0Zm1.084,4.1,0.3-.106,1.039,0.386-0.146.388-0.845.06q-0.186-.361-0.352-0.728h0Zm-3.624,1.98-0.12.029-0.26.568-1.25-.392-0.97.567-0.676-.185L20.3,21.79l-0.261-.442-0.453.324-0.372,1.118-0.233-.064-0.014-.475-0.428.683-0.5-.17L16.468,23l-0.776,1.471-0.084.083q-0.123-.348-0.233-0.7a14.309,14.309,0,0,1-.534-6.61,12.294,12.294,0,0,1,.613-2.284,12.979,12.979,0,0,1,3.306-4.9A38.676,38.676,0,0,1,25.1,6.421a12.066,12.066,0,0,0-1.828,3.234,11.856,11.856,0,0,0-.626,2.417,14.557,14.557,0,0,0,1.458,8.383h0Zm-13.312.259-0.348.386L9.865,22.144,8.88,23.32,8.38,24.5,8.61,25.334l0.148,0.552,0.592,0.19,0.8-.431L11.1,26.089l-0.309.446-0.412.373-0.409.838L9.55,27.689l-0.495,1.1,0.987,1.155L10.1,30.46,9.668,31l-0.18.828L9.447,32.95l0.343,1.863,0.089,0.519,0.573,0.334,0.556-.125,0.656-.645,1.042,0.189,0.512,0.022-0.094.535-0.85.216,0.191,0.625L13.728,36.9l0.733,0.635,0.753,0.2,1.172,0.63,0.019,0.517,0.42,0.394,0,0.51-0.566.121,1.187,0.5,0.156,0.4-0.2,1.089,0.73,0.39,0.075,0.433,1.27,0.306L20.6,45.023l-0.272.853-1.241-1.93-0.09.4,0.982,1.547,0.308,0.946-0.22.431-0.74-.173-0.1.29L19.866,47.9l-0.048.539,1.038,0.072,0.356-.475,0.45,0.22L22.633,49.8l1.315,1.354,0.687,0.7a43.71,43.71,0,0,1-10.567-9.028,31.373,31.373,0,0,1-4.451-6.966L9.642,35.7,9.3,35.04l-0.048-.024a23.659,23.659,0,0,1-.953-2.75l0.145-.689-0.233-.641,0.354-1.009L7.925,28.6,7.8,27.059l-0.235-.813q0.033-.789.138-1.583a16.84,16.84,0,0,1,.923-3.678q0.113-.3.238-0.6,0.976-1.515,2.1-2.935a15.479,15.479,0,0,0-.171,3.265h0ZM24.889,56.64l-0.517.139a2.733,2.733,0,0,0-.4.622c0,0.117-.633,1.627-0.633,1.627l-1,.845-1.441.687L19.634,60.2l-0.967-.009a44.453,44.453,0,0,1-8.089-7.043,35.512,35.512,0,0,1-2.829-3.608L7.389,47.955,7.22,45.25,6.429,42.182l0.477-1.777,0.111,0.018a37.123,37.123,0,0,0,5.4,6.965A51.859,51.859,0,0,0,24.889,56.64h0Zm-10.9,5.126,0.172,0.984-0.326.3-1.14-.433-0.493.054,0.209,0.359-0.078.175-0.88-.763,0.177,0.522,0.291,0.423,0.2,0.108L12,63.835l-0.285.048,0.125,0.173-0.112.267-0.014,0a37.524,37.524,0,0,1-2.856-3.865l-0.3-1.979,0.234-1.24a47.24,47.24,0,0,0,5.192,4.531h0ZM50.8,26.539l-0.039.23,0.271,0.225,0.452-.07,0.731,0.1,0.291-1,0.3-.239,0.024-.443-0.05-.038q-0.57-.045-1.137-0.122l-0.051.178-0.379-.032-0.219.4,0.233,0.2,0.05,0.215-0.141.471a1.972,1.972,0,0,1-.339-0.076h0Zm21.638,4.506L73,31.061l0.075-.39-0.053-.68L73.67,30.18l0.468,0.551,0.534,0.691-0.462.159-0.517-.232-0.2.286,0.191,0.532,0.034,0.256,1.129,0.9,0.3,0.456-0.245.179-0.414-.126L74.52,34.1l0.541,0.357,0.314,1.528-0.055.3-0.438.411L74.636,36.7l-0.173-.422-0.245-.61-0.292-.453,0.321-.256L74.083,34.7l0.081-.342L73.6,34.071,73.35,33.5l-0.479-.775-0.215-.785-0.406-.528-0.32-.347Z"/>
    </g>
  </g>
</svg>
