<!-- Generator: Adobe Illustrator 19.0.0, SVG Export Plug-In  -->
<svg version="1.1"
	 xmlns="http://www.w3.org/2000/svg" xmlns:xlink="http://www.w3.org/1999/xlink" xmlns:a="http://ns.adobe.com/AdobeSVGViewerExtensions/3.0/"
	 x="0px" y="0px" width="352.54px" height="140.255px" viewBox="0 0 352.54 140.255"
	 style="enable-background:new 0 0 352.54 140.255;" xml:space="preserve">
<style type="text/css">
	.st0{fill-rule:evenodd;clip-rule:evenodd;fill:#D9DADD;}
	.st1{fill:#D9DADD;stroke:#D9DADD;stroke-width:0.75;stroke-miterlimit:10;}
</style>
<defs>
</defs>
<g id="XMLID_15_">
	<g id="XMLID_35_">
		<path id="XMLID_36_" class="st0" d="M89.516,42.436l0.21,0.226l0.504,0.845l1.125,0.317l-0.629,0.971l1.156,0.657l-0.901,1.027
			l-0.222,0.5l-0.533,0.289l-1.493-0.529l-2.203,0.452l-0.412-0.462l2.157-0.644l-0.523-0.425l-0.503,0.048l-0.612-0.128
			l0.185-0.398l1.057-0.291l-0.934-0.518l0.238-0.436l0.838,0.095l0.856,0.256l-0.86-1.46l0.238-0.399L89.516,42.436L89.516,42.436z
			 M87.809,42.415L87.474,42.4l0.18,0.044L87.809,42.415L87.809,42.415z M75.498,127.24l4.819,1.677l4.087-3.057l-0.106,5.102
			l4.17,2.942l-4.884,1.476l-1.51,4.875l-2.914-4.189l-5.103,0.071l3.084-4.066L75.498,127.24L75.498,127.24z M147.018,64.375
			h-0.321v14.631h-9.448V46.992c0-0.917,0.443-1.376,1.33-1.376h25.868c2.263,0,4.181,0.275,5.756,0.826
			c1.575,0.55,2.851,1.338,3.83,2.362c0.978,1.024,1.689,2.27,2.133,3.738c0.443,1.468,0.665,3.119,0.665,4.953v2.706
			c0,3.822-0.925,6.689-2.775,8.6c-1.85,1.911-4.9,2.866-9.15,2.866h-15.09L147.018,64.375L147.018,64.375z M352.54,65.751
			c0,2.018-0.245,3.845-0.734,5.481c-0.489,1.636-1.269,3.027-2.339,4.174s-2.469,2.033-4.197,2.66
			c-1.728,0.627-3.83,0.94-6.306,0.94h-14.86c-2.477,0-4.587-0.314-6.329-0.94c-1.743-0.627-3.15-1.514-4.22-2.66
			c-1.07-1.147-1.85-2.538-2.339-4.174c-0.489-1.636-0.734-3.463-0.734-5.481v-6.88c0-2.018,0.245-3.845,0.734-5.481
			c0.489-1.636,1.269-3.027,2.339-4.174c1.07-1.146,2.477-2.033,4.22-2.66c1.743-0.627,3.853-0.94,6.329-0.94h14.86
			c2.477,0,4.579,0.313,6.306,0.94c1.728,0.627,3.127,1.514,4.197,2.66c1.07,1.146,1.85,2.538,2.339,4.174
			c0.489,1.636,0.734,3.463,0.734,5.481V65.751L352.54,65.751z M319.93,64.925c0,1.161,0.115,2.095,0.344,2.798
			c0.229,0.703,0.596,1.246,1.101,1.628c0.504,0.382,1.162,0.642,1.972,0.78c0.81,0.137,1.812,0.207,3.004,0.207h11.742
			c1.009,0,1.842-0.107,2.5-0.321c0.657-0.214,1.17-0.573,1.537-1.078c0.367-0.504,0.619-1.185,0.757-2.041s0.207-1.911,0.207-3.165
			V59.33c0-2.049-0.382-3.455-1.147-4.22c-0.764-0.764-2.049-1.147-3.853-1.147h-13.163c-1.009,0-1.842,0.107-2.5,0.321
			c-0.657,0.214-1.17,0.574-1.536,1.078c-0.367,0.505-0.619,1.177-0.757,2.018c-0.138,0.841-0.206,1.888-0.206,3.142V64.925
			L319.93,64.925z M289.384,53.963v25.042h-9.448V53.963h-13.851l-3.073-7.98v-0.367h44.26c0.887,0,1.33,0.459,1.33,1.376v8.668
			l-8.76,3.256h-0.367v-4.449c0-0.336-0.168-0.505-0.504-0.505H289.384L289.384,53.963z M263.516,65.751v-6.88
			c0-2.018-0.245-3.845-0.734-5.481c-0.489-1.636-1.269-3.027-2.339-4.174c-1.07-1.146-2.469-2.033-4.197-2.66
			c-1.728-0.627-3.83-0.94-6.306-0.94h-14.86c-2.477,0-4.587,0.313-6.329,0.94c-1.743,0.627-3.15,1.514-4.22,2.66
			c-1.07,1.146-1.85,2.538-2.339,4.174c-0.489,1.636-0.734,3.463-0.734,5.481v6.88c0,2.018,0.245,3.845,0.734,5.481
			c0.489,1.636,1.269,3.027,2.339,4.174c1.07,1.147,2.477,2.033,4.22,2.66c1.743,0.627,3.853,0.94,6.329,0.94h14.86
			c2.476,0,4.579-0.314,6.306-0.94c1.728-0.627,3.126-1.514,4.197-2.66c1.07-1.147,1.85-2.538,2.339-4.174
			C263.271,69.596,263.516,67.768,263.516,65.751L263.516,65.751z M230.906,64.925v-4.403c0-1.254,0.069-2.301,0.206-3.142
			c0.137-0.841,0.39-1.513,0.757-2.018c0.367-0.504,0.879-0.864,1.536-1.078c0.657-0.214,1.491-0.321,2.5-0.321h13.163
			c1.804,0,3.088,0.382,3.853,1.147c0.764,0.764,1.147,2.171,1.147,4.22v4.403c0,1.254-0.069,2.309-0.207,3.165
			c-0.138,0.856-0.39,1.537-0.757,2.041c-0.367,0.504-0.879,0.864-1.536,1.078c-0.657,0.214-1.491,0.321-2.5,0.321h-11.742
			c-1.192,0-2.194-0.069-3.004-0.207c-0.81-0.137-1.468-0.398-1.972-0.78c-0.504-0.382-0.871-0.925-1.101-1.628
			C231.02,67.02,230.906,66.087,230.906,64.925L230.906,64.925z M189.535,62.907v16.099h-9.448V46.992
			c0-0.917,0.428-1.376,1.284-1.376h26.097c2.079,0,3.837,0.245,5.275,0.734c1.437,0.489,2.599,1.2,3.486,2.133
			c0.887,0.933,1.529,2.056,1.926,3.371c0.397,1.315,0.596,2.798,0.596,4.449v2.385c0,1.62-0.199,3.073-0.596,4.357
			c-0.397,1.284-1.032,2.377-1.903,3.279c-0.871,0.902-1.995,1.598-3.371,2.087c-1.376,0.489-3.058,0.734-5.045,0.734h-0.963
			c-0.459,0-0.864,0-1.215,0c-0.352,0-0.696-0.015-1.032-0.046v0.321c0.398,0.367,0.795,0.772,1.193,1.215
			c0.397,0.443,0.78,0.894,1.147,1.353l5.32,6.65v0.367h-10.641l-11.787-16.099H189.535L189.535,62.907z M190.178,53.963
			c-0.428,0-0.642,0.26-0.642,0.78v7.293h16.236c1.254,0,2.148-0.245,2.683-0.734c0.535-0.489,0.803-1.422,0.803-2.798v-1.147
			c0-1.284-0.268-2.171-0.803-2.66c-0.535-0.489-1.43-0.734-2.683-0.734H190.178L190.178,53.963z M147.294,53.963
			c-0.397,0-0.596,0.214-0.596,0.642v8.898h16.557c1.529,0,2.599-0.306,3.211-0.918c0.611-0.611,0.917-1.605,0.917-2.981v-1.651
			c0-1.559-0.306-2.614-0.917-3.165c-0.611-0.55-1.682-0.826-3.211-0.826H147.294L147.294,53.963z M53.625,66.474l2.815,4.256
			l5.103,0.047l-3.178,3.993l1.532,4.868l-4.779-1.788l-4.156,2.961l0.223-5.098l-4.1-3.038l4.918-1.363L53.625,66.474
			L53.625,66.474z M56.83,40.275l1.923,4.727l4.994,1.051l-3.901,3.289l0.544,5.074l-4.334-2.693l-4.657,2.086l1.222-4.955
			l-3.423-3.785l5.09-0.369L56.83,40.275L56.83,40.275z M56.696,91.945l4.032,3.128l4.849-1.593l-1.728,4.801l3.013,4.119
			l-5.101-0.16l-2.986,4.138l-1.424-4.9l-4.858-1.561l4.22-2.869L56.696,91.945L56.696,91.945z M64.027,112.588l0.801,5.039
			l-3.729,3.484l5.041,0.795l2.162,4.622l2.314-4.548l5.064-0.627l-3.611-3.606l0.969-5.01l-4.546,2.32L64.027,112.588
			L64.027,112.588z M107.162,24.356C101.404,6.637,79.762-2.259,56.913,0.492C33.854,4.69,14.194,14.522,3.349,44.048
			c-10.845,29.526,5.162,74.767,40.624,87.793c8.905,3.271,18.422,4.464,27.797,3.884l3.444-4.54l-0.206-0.604
			c-9.599,1.145-19.605,0.105-29.302-3.457C25.75,119.794,11.7,103.482,6.446,84.442c7.959,13.142,23.135,25.26,42.532,32.384
			c3.456,1.269,6.912,2.331,10.342,3.192l3.602-3.366l-0.201-1.268c-3.949-0.876-7.94-2.04-11.926-3.503
			C22.564,101.511,3.87,79.536,4.669,59.668c0.39-3.063,1.011-6.128,1.87-9.175c1.336,18.134,18.604,37.613,44.159,48.319
			l4.142-2.816l-0.004-1.21C24.113,82.695,5.697,56.213,13.533,34.881c0.133-0.364,0.274-0.724,0.421-1.08
			c1.586-2.518,3.331-4.901,5.222-7.134c-4.091,15.003,6.547,32.75,25.581,44.971l5.479-1.519l0.352-1.048
			c-20.034-11.67-31.22-29.708-25.871-44.268c1.185-3.227,3.1-6.059,5.611-8.467c4.115-2.98,8.569-5.454,13.256-7.371
			c-2.145,2.114-3.793,4.594-4.828,7.412c-3.222,8.773,0.204,18.89,8.149,27.477l5.701-0.414l0.563-0.98
			c-8.293-7.776-12.156-17.246-9.198-25.3c2.424-6.599,8.956-10.959,17.483-12.626c5.118-0.498,10.342-0.375,15.563,0.418
			c-8.197,0.151-14.995,3.68-17.234,9.774c-3.3,8.983,4.557,20.133,17.548,24.905c12.991,4.772,26.197,1.358,29.496-7.624
			C107.728,29.56,107.798,26.952,107.162,24.356L107.162,24.356z M104.868,26.908c0.448,0,0.811,0.363,0.811,0.811
			c0,0.448-0.363,0.811-0.811,0.811s-0.811-0.363-0.811-0.811C104.057,27.271,104.42,26.908,104.868,26.908L104.868,26.908z
			 M62.246,15.273c0.448,0,0.811,0.363,0.811,0.811c0,0.448-0.363,0.811-0.811,0.811c-0.448,0-0.811-0.363-0.811-0.811
			C61.435,15.637,61.798,15.273,62.246,15.273L62.246,15.273z M76.565,35.55c0.448,0,0.811,0.363,0.811,0.811
			c0,0.448-0.363,0.811-0.811,0.811c-0.448,0-0.811-0.363-0.811-0.811C75.754,35.913,76.117,35.55,76.565,35.55L76.565,35.55z
			 M81.795,37.479c0.448,0,0.811,0.363,0.811,0.811c0,0.448-0.363,0.811-0.811,0.811s-0.811-0.363-0.811-0.811
			C80.984,37.842,81.347,37.479,81.795,37.479L81.795,37.479z M87.444,38.235c0.448,0,0.811,0.363,0.811,0.811
			c0,0.448-0.363,0.811-0.811,0.811c-0.448,0-0.811-0.363-0.811-0.811C86.633,38.598,86.996,38.235,87.444,38.235L87.444,38.235z
			 M61.126,20.662c0.028,0.174,0.058,0.308,0.091,0.403c0.033,0.095,0.067,0.165,0.103,0.211c0.035,0.045,0.071,0.072,0.106,0.08
			c0.036,0.007,0.068,0.009,0.097,0.004c0.058-0.009,0.102-0.03,0.131-0.063c0.03-0.033,0.049-0.08,0.059-0.143
			c0.01-0.062,0.011-0.144,0.004-0.243c-0.008-0.099-0.021-0.218-0.04-0.357c-0.009-0.081-0.02-0.177-0.03-0.287
			c-0.011-0.11-0.015-0.225-0.013-0.344c0.003-0.119,0.015-0.238,0.037-0.357c0.023-0.119,0.063-0.229,0.121-0.328
			c0.058-0.1,0.138-0.186,0.238-0.258c0.1-0.072,0.23-0.121,0.387-0.146l0.063-0.01c0.138-0.022,0.275-0.018,0.41,0.012
			c0.135,0.03,0.26,0.097,0.376,0.203c0.115,0.105,0.218,0.256,0.307,0.451c0.089,0.195,0.157,0.446,0.205,0.751l0.028,0.174
			c0.035,0.221,0.056,0.439,0.062,0.653c0.006,0.213-0.001,0.424-0.021,0.631l-0.796,0.126c0.018-0.243,0.024-0.483,0.02-0.718
			c-0.004-0.235-0.025-0.471-0.063-0.709c-0.028-0.174-0.058-0.309-0.092-0.406c-0.034-0.097-0.068-0.168-0.103-0.214
			c-0.035-0.046-0.069-0.072-0.102-0.08c-0.033-0.008-0.063-0.01-0.092-0.005c-0.058,0.009-0.102,0.03-0.133,0.063
			c-0.031,0.033-0.051,0.081-0.061,0.146c-0.01,0.064-0.011,0.145-0.004,0.243c0.007,0.098,0.02,0.214,0.038,0.35
			c0.009,0.078,0.02,0.17,0.032,0.277c0.012,0.107,0.017,0.221,0.014,0.341c-0.002,0.12-0.015,0.241-0.039,0.362
			c-0.023,0.121-0.064,0.232-0.123,0.333c-0.058,0.101-0.138,0.189-0.24,0.263c-0.102,0.074-0.232,0.123-0.389,0.148l-0.063,0.01
			c-0.138,0.022-0.274,0.018-0.407-0.012c-0.133-0.03-0.258-0.098-0.374-0.205c-0.116-0.107-0.218-0.257-0.306-0.451
			c-0.088-0.194-0.157-0.445-0.206-0.753l-0.028-0.174c-0.04-0.254-0.066-0.503-0.077-0.747c-0.011-0.244-0.01-0.485,0.001-0.725
			l0.81-0.129c-0.016,0.27-0.021,0.546-0.012,0.83C61.063,20.149,61.087,20.415,61.126,20.662L61.126,20.662z M64.739,23.713
			l-3.016,1.267l-0.341-0.81l3.016-1.268L64.739,23.713L64.739,23.713z M65.051,28.148l1.691-1.245l0.521,0.708l-2.635,1.94
			l-0.521-0.708l0.675-2.625l-1.691,1.245l-0.521-0.708l2.635-1.94l0.521,0.708L65.051,28.148L65.051,28.148z M67.068,29.667
			c0.147-0.165,0.307-0.302,0.478-0.412c0.171-0.109,0.355-0.173,0.551-0.193c0.196-0.019,0.407,0.015,0.634,0.104
			c0.227,0.088,0.469,0.247,0.726,0.477l0.131,0.117c0.165,0.147,0.316,0.301,0.454,0.46c0.137,0.159,0.264,0.326,0.38,0.499
			l-0.53,0.594c-0.063-0.1-0.131-0.197-0.202-0.291c-0.071-0.094-0.144-0.184-0.218-0.269c-0.074-0.086-0.147-0.165-0.22-0.238
			c-0.072-0.073-0.139-0.137-0.199-0.191c-0.19-0.169-0.352-0.282-0.486-0.338c-0.135-0.057-0.254-0.075-0.358-0.054
			c-0.104,0.021-0.199,0.071-0.286,0.151c-0.086,0.08-0.176,0.172-0.269,0.277c-0.093,0.104-0.174,0.204-0.244,0.299
			c-0.07,0.095-0.109,0.196-0.119,0.303c-0.01,0.107,0.021,0.224,0.093,0.351c0.072,0.127,0.202,0.275,0.392,0.444
			c0.061,0.054,0.131,0.113,0.212,0.176c0.081,0.063,0.168,0.127,0.262,0.191c0.094,0.064,0.192,0.125,0.294,0.184
			c0.103,0.059,0.207,0.114,0.314,0.165l-0.533,0.598c-0.183-0.098-0.362-0.206-0.536-0.324c-0.174-0.118-0.344-0.251-0.509-0.398
			l-0.131-0.117c-0.258-0.229-0.443-0.452-0.557-0.667c-0.114-0.215-0.173-0.421-0.176-0.618c-0.003-0.197,0.04-0.387,0.128-0.569
			c0.089-0.183,0.207-0.357,0.354-0.522L67.068,29.667L67.068,29.667z M73.706,33.849l-1.883-1.234l-0.268,0.408l1.474,0.967
			l-0.428,0.653l-1.474-0.967l-0.241,0.368l1.883,1.234l-0.428,0.653l-2.618-1.716l1.794-2.736l2.618,1.716L73.706,33.849
			L73.706,33.849z M91.965,40.363l-0.111-0.773l1.112-0.16l-0.194-1.344l-0.929,0.741l-0.119-0.822l1.549-1.235l0.193-0.028
			l0.37,2.562l0.826-0.119l0.112,0.773L91.965,40.363L91.965,40.363z M97.826,39.046c-0.082,0.032-0.17,0.062-0.264,0.091
			c-0.093,0.029-0.189,0.054-0.285,0.075c-0.096,0.021-0.191,0.039-0.285,0.054c-0.094,0.015-0.18,0.024-0.259,0.026l-0.292-0.762
			c0.085,0.002,0.176-0.002,0.275-0.014c0.099-0.011,0.197-0.027,0.296-0.045c0.099-0.019,0.195-0.042,0.288-0.069
			c0.093-0.027,0.175-0.054,0.248-0.082c0.143-0.055,0.253-0.113,0.33-0.176c0.077-0.063,0.131-0.131,0.162-0.206
			c0.031-0.075,0.041-0.154,0.031-0.239c-0.01-0.085-0.03-0.176-0.06-0.273c-0.076,0.075-0.164,0.139-0.263,0.193
			c-0.1,0.054-0.216,0.106-0.35,0.158c-0.301,0.115-0.55,0.177-0.747,0.187c-0.197,0.009-0.359-0.015-0.485-0.073
			c-0.127-0.058-0.225-0.141-0.294-0.248c-0.069-0.108-0.126-0.221-0.172-0.339l-0.023-0.059c-0.05-0.131-0.079-0.26-0.088-0.387
			c-0.009-0.127,0.02-0.253,0.085-0.378c0.066-0.124,0.177-0.246,0.334-0.363c0.157-0.118,0.377-0.231,0.66-0.339l0.169-0.065
			c0.249-0.095,0.471-0.136,0.665-0.121c0.194,0.015,0.366,0.071,0.517,0.168c0.151,0.097,0.28,0.228,0.388,0.393
			c0.108,0.164,0.202,0.348,0.28,0.552l0.091,0.237c0.08,0.209,0.134,0.415,0.16,0.616c0.026,0.201,0.012,0.39-0.044,0.569
			c-0.056,0.178-0.159,0.342-0.311,0.493c-0.152,0.151-0.366,0.279-0.642,0.385L97.826,39.046L97.826,39.046z M96.925,36.515
			c0.125-0.048,0.231-0.075,0.319-0.083c0.088-0.007,0.164,0.001,0.23,0.027c0.066,0.026,0.122,0.067,0.168,0.124
			c0.046,0.057,0.088,0.126,0.126,0.205c-0.07,0.044-0.146,0.085-0.227,0.124c-0.081,0.038-0.172,0.076-0.273,0.115
			c-0.149,0.057-0.269,0.094-0.36,0.112c-0.091,0.017-0.162,0.022-0.214,0.014c-0.052-0.008-0.09-0.027-0.113-0.056
			c-0.023-0.03-0.042-0.061-0.054-0.094c-0.011-0.027-0.019-0.06-0.024-0.098c-0.006-0.038,0.002-0.078,0.025-0.119
			c0.022-0.042,0.064-0.085,0.125-0.131C96.712,36.608,96.803,36.562,96.925,36.515L96.925,36.515z M101.996,36.668
			c-0.067,0.057-0.14,0.114-0.219,0.172c-0.079,0.058-0.16,0.113-0.244,0.165c-0.084,0.052-0.168,0.1-0.251,0.145
			c-0.083,0.045-0.162,0.082-0.236,0.11l-0.526-0.623c0.081-0.026,0.166-0.06,0.255-0.103c0.089-0.043,0.178-0.09,0.265-0.14
			c0.087-0.051,0.17-0.104,0.249-0.159c0.079-0.056,0.148-0.109,0.208-0.159c0.117-0.099,0.202-0.19,0.254-0.275
			c0.052-0.085,0.08-0.167,0.085-0.248c0.004-0.081-0.012-0.159-0.049-0.236c-0.037-0.077-0.086-0.156-0.147-0.238
			c-0.047,0.096-0.109,0.185-0.185,0.268c-0.077,0.084-0.169,0.172-0.279,0.264c-0.246,0.208-0.461,0.348-0.644,0.422
			c-0.183,0.073-0.344,0.104-0.482,0.091c-0.138-0.013-0.258-0.059-0.359-0.138c-0.101-0.079-0.192-0.167-0.274-0.264l-0.041-0.048
			c-0.09-0.107-0.16-0.219-0.211-0.337c-0.05-0.117-0.065-0.246-0.044-0.385c0.021-0.139,0.086-0.29,0.196-0.453
			c0.11-0.163,0.28-0.342,0.512-0.537l0.138-0.116c0.204-0.172,0.4-0.283,0.588-0.333c0.188-0.05,0.369-0.054,0.543-0.011
			c0.174,0.042,0.339,0.123,0.496,0.243c0.156,0.119,0.305,0.263,0.446,0.429l0.164,0.194c0.145,0.172,0.263,0.348,0.354,0.529
			c0.091,0.181,0.14,0.365,0.146,0.551c0.006,0.186-0.038,0.376-0.131,0.568c-0.094,0.192-0.254,0.383-0.48,0.575L101.996,36.668
			L101.996,36.668z M100.312,34.574c0.102-0.086,0.193-0.147,0.274-0.183c0.08-0.036,0.156-0.053,0.226-0.05
			c0.071,0.003,0.137,0.023,0.2,0.062c0.062,0.039,0.125,0.09,0.186,0.153c-0.052,0.065-0.109,0.129-0.174,0.192
			c-0.064,0.063-0.138,0.129-0.22,0.198c-0.122,0.103-0.223,0.177-0.303,0.224c-0.08,0.046-0.146,0.074-0.198,0.084
			c-0.052,0.009-0.093,0.004-0.125-0.016c-0.032-0.02-0.059-0.044-0.082-0.071c-0.019-0.022-0.037-0.05-0.055-0.084
			c-0.018-0.034-0.023-0.074-0.016-0.121c0.007-0.047,0.032-0.102,0.075-0.165C100.141,34.732,100.212,34.658,100.312,34.574
			L100.312,34.574z M105.015,31.165l0.701,0.346l-1.308,2.649l-0.915-0.452c-0.143-0.071-0.253-0.154-0.331-0.251
			c-0.078-0.097-0.131-0.198-0.16-0.305c-0.029-0.107-0.039-0.217-0.03-0.331c0.009-0.114,0.027-0.223,0.055-0.327
			c0.028-0.104,0.061-0.201,0.1-0.291c0.039-0.09,0.073-0.167,0.102-0.233c0.092-0.201,0.145-0.352,0.158-0.453
			c0.013-0.101-0.033-0.177-0.137-0.229c-0.026-0.013-0.056-0.021-0.089-0.025c-0.033-0.004-0.071,0.007-0.113,0.031
			c-0.043,0.024-0.09,0.069-0.143,0.134c-0.052,0.065-0.109,0.16-0.171,0.286c-0.095,0.193-0.175,0.39-0.238,0.593
			c-0.064,0.202-0.118,0.411-0.162,0.625l-0.723-0.357c0.031-0.181,0.076-0.361,0.134-0.541c0.058-0.18,0.132-0.361,0.221-0.542
			l0.078-0.158c0.125-0.254,0.255-0.452,0.388-0.593c0.133-0.141,0.269-0.241,0.406-0.298c0.137-0.057,0.274-0.078,0.409-0.062
			c0.136,0.016,0.266,0.055,0.392,0.117l0.057,0.028c0.143,0.071,0.253,0.153,0.33,0.247c0.077,0.094,0.13,0.194,0.16,0.3
			c0.03,0.105,0.04,0.213,0.031,0.323c-0.009,0.11-0.028,0.218-0.056,0.323c-0.028,0.106-0.062,0.204-0.1,0.296
			c-0.038,0.092-0.072,0.172-0.102,0.241c-0.095,0.207-0.149,0.36-0.162,0.459c-0.012,0.099,0.032,0.174,0.134,0.224l0.167,0.082
			L105.015,31.165L105.015,31.165z M87.579,10.098c10.055,3.694,16.309,13.49,13.969,19.86c-2.34,6.37-12.388,8.54-22.443,4.847
			C69.05,31.112,62.795,22.954,65.135,16.583C67.475,10.213,77.524,6.404,87.579,10.098L87.579,10.098z M102.228,12.007
			l-0.916,0.012l1.255,0.597l0.799,1.205l1.78,0.964l0.74,1.416l-1.9-1.532l-1.544-1.129l-0.226-0.057
			c1.195,1.419,2.256,2.951,3.158,4.599l0.655,0.48l0.56,1.273l2.065,1.243l2.02,1.207l-1.16-0.115l-1.563-1.079l0.475,1.028
			l-1.523-0.723c0.24,0.631,0.456,1.277,0.652,1.938l1.133,0.608l1.593,1.419l0.322,0.604l-2.059-0.679l-0.211,0.311l0.981,1.078
			l0.419,0.445l-0.685-0.038l-0.303,0.878l-0.498-0.29c0.001,0.602-0.038,1.203-0.119,1.8l0.151,0.763l-0.291,0.07
			c-0.109,0.544-0.254,1.082-0.435,1.614l0.016,0.034l0.121,0.781l-0.348-0.237c-0.124,0.316-0.26,0.626-0.408,0.931l0.249,0.264
			l-0.266-0.229c-0.233,0.474-0.494,0.933-0.783,1.376c-0.785,1.203-1.744,2.243-2.824,3.135l0.179,0.335l0.491,0.141l1.094-0.917
			l0.834,0.423l0.182,0.454l0.454,0.244l-0.998,0.235l-0.715,0.416l-0.847-0.175l0.397,0.98l0.398,1.503l-0.265,0.407l-0.886-0.441
			l-0.38,0.559l0.468,1.685l-0.474,0.446l0.023,0.571l-0.42,0.564l-1.07-0.413l-0.225,0.403l-2.408-0.574L98.73,45.13l-1.001,0.138
			l-0.574-1.976l0.209-0.621l0.396-0.339l-0.502-0.902l0.019-0.232c-0.316,0.104-0.635,0.2-0.955,0.29l0.244,0.347l-0.563,0.317
			l-0.421,0.99l0.783,1.141l0.074,0.958l-0.367,0.525l-0.234,0.321l-1.688-0.368l-0.344,0.514l-0.487,0.112l-0.243,0.823
			l-1.715-0.029l-0.304,1.091l-1.913-0.179l-0.412,0.702l0.022,0.415l-1.564-0.283l-0.908,0.675l1.182,0.9l0.982,0.865l0.982,2.184
			l-0.473,1.184l-1.209,0.332l-2.74-1.201l-2.946-0.112l0.089,1.235l-1.327,3.508l0.44,0.491l-0.185,0.398l4.689,1.916l0.838-0.487
			l0.885,0.286l1.079-0.826l0.678-0.683l0.345-0.94l0.317-0.969l1.216-0.776l0.994,0.307l0.767-1.561l1.431,0.487l0.352-0.434
			l0.84,0.406l0.239-0.437l0.693-0.25l1,0.445l1.827,2.63l1.395,1.695l0.655,0.435l0.106,1.086l0.106,0.66l0.474,0.135l0.696-1.102
			l-0.072-0.86l0.59-0.074l0.25-0.258l-0.966-1.014l-1.075-1.034l-2.113-2.115l-0.537-0.915l1.769-0.01l1.225,1.362l1.893,0.656
			l0.904,1.922l0.453,1.563l0.987,1.274l0.955,0.409l-0.607,0.805l0.028,0.824l1.293-1.038c0,0,0.634,0.019,0.54-0.15
			c-0.093-0.17-0.594-1.13-0.684-1.357c-0.092-0.227-0.429-1.263-0.429-1.263l0.537-0.986l0.618,0.324l0.535,0.604l0.27,0.369l0,0
			l1.679-1.364l-0.136-2.377l0.437-2.245c0,0-0.124-1.248,0.457-1.034c0.581,0.214,1.119,0.333,1.119,0.333l0.069,0.762
			l-0.341,0.321l0.316,0.513l0.133,0.67l0.71-0.613l0.982-0.163l-1.163-0.98l0.024-0.699l1.193-0.028l0,0.844l0.386,0.559
			l1.275,0.837l0.676,0.986l0.378,1.244l-0.381,0.403l-2.25,0.105l-1.418-0.735l-1.227,0.965l-0.413,0.702l-0.474-0.136l-1.99,1.183
			l0.621,0.85l-0.135,0.843l-0.246,0.88l0.418,0.289l1.428,0.389l-0.05,0.505l2.046-0.607l1.7-0.616l0.452,0.67l0.012,2.235
			l-1.01,2.751l-0.93,0.26l-0.793,0.31l-3.094-0.186l-0.913,0.11l-2.33-1.419l-1.44,0.17l-1.08,0.457l1.272,1.186
			c0,0-0.46,0.723-0.545,0.691c-0.085-0.031-2.84-0.771-2.84-0.771l-1.398-1.793l-3.369-1.916l1.109-0.485l0.057-1.317l0.238-0.804
			l-3.687-0.365l-3.777-0.806l-4.42,0.626l-2.99-0.943l-0.771,1.463l-0.819,0.436l-3.152,1.402l0.06,1.419l-0.857,0.538l-1.15-0.093
			c0,0-1.465,1.614-1.582,1.668c-0.116,0.054-3.326,1.979-3.326,1.979l-0.321,0.716l-0.876,0.009l-0.686,1.182l-0.173,2.265
			l-0.377,2.189l-0.829,1.519l-0.822,0.125l0.017,1.325l0.248,1.332l0.489,1.731l1.078,2.452l2.267,2.384l0.773,2.224l1.289,0.823
			l2.872-0.109l2.005,0.775l4.261-0.724l0.179,0.57l1.652-0.168l0.727-0.393l0.933,0.731l1.355,0.537l-0.09,0.665l-0.852-0.003
			l0.331,0.471l1.773,0.457l1.002-0.407l0.833,0.267l-0.068,0.712l0.378,0.449l0.041,0.946l-1.271,1.454l-0.789,0.564l-0.21,0.835
			l0.245,0.652l0.423,0.699l0.596,0.858l0.028,1.194l0.711,0.863l-0.325,1.412l0.285,0.648l-0.239,0.862l-0.712,1.833l-1.632,1.379
			l-0.417,0.816l-0.579,0.098l-0.738,1.164l-0.121,0.964l-0.217,0.696l0.012,1.498l0.053,1.125l-0.37,1.008l-1.053,1.65
			l-0.115,0.364l0.459,1.022l-0.116,1.16l-1.023,1.467l-0.322,0.347l0.423,0.486l7.54-1.227l3.147-1.016l0.656-0.73l2.669-1.774
			l1.105-1.107l0.216,0.39l1.014-0.966l1.416-1.371l0.433-0.229l0.243-1.191l0.915-0.168l0.357-0.761l0.681,0.366l1.701-1.78
			l0.749-0.772l1.624-1.15l0.795-0.367l1.476-4.23l0.79-0.989l1.494-4.068l2.612-1.407l1.732-4.291l2.483-4.015l0.135-1.424
			l1.661-1.989l0.728-0.819l-0.36-0.288l-1.506,1.037l-1.378,1.007l-0.505-1.582l-0.175-1.053l-0.762-1.095l-0.823-0.768
			l0.121-1.119l-0.792-1.067l0.099-2.117l-0.329-0.741l0.082-1.172l-1.183-0.687l-0.579-1.434l-0.233-2.006l0.719-1.113l2.48,4.286
			l-0.191,1.365l0.462,1.489l0.903,1.767l0.335,1.52l-0.013,1.935l1.547-0.092l0.949-0.893l0.476-0.873l1.98-1.484l1.545-2.304
			l1.322-2.385l0.256-1.438l0.168-1.142l-0.534-0.817l-0.676-0.908l-0.56,0.629l-0.734,0.467l-0.23,0.731l-1.138,0.3l0.485-0.579
			c0,0,0.423-0.678,0.35-0.744c-0.073-0.065-1.09-0.517-1.09-0.517l-0.245,0.666l-0.077-1.454l-0.402-1.175l-0.29-0.611l0.309-1.186
			l1.075,0.375l0.22,0.721l0.407,1.003l0.34,0.765l1.149-0.568l0.196-0.771l0.315,0.436l0.422,0.649l0.575-0.245l0.326-0.491
			l-0.143-0.615l0.885,0.364l0.589-0.074l0.472-0.36l0.526,1.076l0.329,0.266l-0.317,0.97l0.57,0.19l0.485-0.636l-0.013,1.411
			l0.062,0.411l-0.198,1.227l-0.05,1.67l-0.018,0.789l-0.4,1.986l0.099,1.104C135.749,54.805,124.935,29.143,102.228,12.007
			L102.228,12.007z M101.359,26.47c0.052,0.626,0.035,1.258-0.066,1.892c-0.074,0.468-0.193,0.927-0.356,1.371
			c-0.163,0.444-0.37,0.871-0.615,1.275c-1.357,2.233-3.753,3.559-6.243,4.261l-0.051-0.206l1.108-0.641l0.401-0.454l0.666,0.031
			l0.022-0.535l1.599-2.031l-0.463-0.694l0.081-1.327l0.01-1.665l1.103-0.836l1.167,0.254l0.101-0.699l0.659-0.632l0.653,0.492
			L101.359,26.47L101.359,26.47z M97.983,40.951c1.281-0.469,2.517-1.059,3.663-1.782l0.055,0.089l-0.315,0.699l-0.521-0.114
			l-0.616,0.356l0.628,2.093l-1.82,1.523L97.983,40.951L97.983,40.951z M71.049,12.293l1.131-0.438l1.405,0.4l-0.837-0.889
			l3.843,0.519l-0.565-1.221c0.492-0.042,0.986-0.067,1.483-0.075l0.111,0.084l1.302,0.361l0.989,0.053l1.283,1.364l2.339-0.771
			l1.114,0.875l-1.321,0.639l0.863,0.821l1.096-0.451l0.546,0.627l-1.156,0.507l-0.197,1.169l-0.791,0.253l0.321,1.979l-0.819,0.01
			l0.18,2.044l-1.02-0.18l-1.972,0.827l1.127,2.004l-1.027,0.05l-1.094-1.139l0.183,1.192l-0.114,0.734l1.385-0.073l0.372,0.679
			l-1.268,0.388l-3.285-0.353l-5.587,1.904l-1.396-0.318l-0.115,0.734l-0.887,0.411l-0.064,0.047l-0.028-0.032
			c-1.127-1.323-2.138-2.894-2.73-4.581l1.901-1.164l-0.949-1.008l2.543-0.268l0.22-0.812l-1.709-0.628l2.016,0.004l1.09-0.221
			l-0.045-0.404l-0.904-0.603l2.799-2.231l0.158-1.378l-0.316-0.621L71.049,12.293L71.049,12.293z M56.634,6.537l-0.879,0.652
			l-0.503-0.107C55.708,6.889,56.168,6.707,56.634,6.537L56.634,6.537z M54.632,7.354l-0.065,0.214l0.398,0.185l-0.52,0.255
			l-0.392,0.38l0.595,0.335l0.551-0.496l1.43,0.118L56.42,8.81l-0.546-0.045l-0.386,0.789l-0.491-0.142l0.402,0.594l0.003,0.467
			l-0.246,0.511l-0.053,0.407l1.955-0.465l1.255-0.141l0.59-0.656l2.246-0.358l1.18-0.362l0.182,0.042
			c-0.357,0.339-0.698,0.698-1.019,1.075l-2.254,0.695L58.7,11.316l-1.042,0.199l-0.139,0.589l1.351-0.299l0.449,0.204l-0.311,0.371
			l-1.951,0.505l-0.375,0.018l0,0.582l1.363-0.12l1.87-0.52c-0.175,0.327-0.337,0.666-0.486,1.015l-0.643,0.184l-0.403,0.57
			l-2.692,0.04l-0.465-0.423l-0.336,0.226l-0.653-0.861l-0.561,0.26l0.311,0.366l-0.258,0.546l-1.287-0.511l-0.565-0.364
			l-5.824,1.334l-0.801,0.753l-0.141,0.14C47.041,12.029,50.577,9.197,54.632,7.354L54.632,7.354z M44.804,16.817l0.246,0.348
			l-0.872,2.744l0.546,1.946L44.278,22.7l-0.642-0.32c0.021-0.7,0.083-1.404,0.196-2.109c0.156-0.984,0.407-1.95,0.751-2.885
			C44.653,17.193,44.727,17.004,44.804,16.817L44.804,16.817z M43.671,24.051l4.156-1.561l0.487-0.849l0.734-0.254l0.795-1.162
			l2.088-0.881l0.184-0.553l1.73-0.432l0.241,0.399l1.075,0.666l-0.306,0.993l-0.812,0.73l0.151,0.54l-0.781,2.021l1.242-0.319
			l0.42-0.35l0.375,0.138l0.404-0.57l0.54,0.218l0.054,0.698l-0.819,0.436l-1.107,2.91l-0.448-0.048l0.058,1.98l0.963,0.625
			l-0.415,0.604l-1.342-0.095l1.607,0.668l-0.069,0.847l-1.395,0.205l-2.275,0.173l-2.847-0.91l-2.121-0.721l-0.991,0.245
			C44.385,28.383,43.823,26.239,43.671,24.051L43.671,24.051z M45.447,30.908l0.498-0.178l1.703,0.645l-0.239,0.649l-1.386,0.101
			C45.821,31.723,45.628,31.317,45.447,30.908L45.447,30.908z M39.508,34.219l-0.197,0.048l-0.426,0.949l-2.048-0.656l-1.59,0.949
			l-1.108-0.31l-0.867,1.252l-0.427-0.739l-0.743,0.542l-0.609,1.871L31.11,38.02l-0.023-0.794l-0.702,1.143l-0.827-0.284
			l-2.57,0.394l-1.273,2.461l-0.137,0.139c-0.135-0.389-0.262-0.78-0.381-1.173c-1.087-3.588-1.487-7.343-0.876-11.058
			c0.214-1.302,0.55-2.581,1.005-3.82c1.153-3.138,3.015-5.878,5.419-8.191c3.261-2.359,6.746-4.401,10.394-6.095
			c-1.261,1.636-2.273,3.444-2.995,5.411c-0.481,1.309-0.824,2.664-1.025,4.044C36.414,25.025,37.472,29.848,39.508,34.219
			L39.508,34.219z M17.691,34.653l-0.571,0.646l-0.952,1.745l-1.615,1.967l-0.82,1.969l0.378,1.4l0.243,0.923l0.969,0.318
			l1.312-0.721l1.55,0.744l-0.507,0.745l-0.675,0.625l-0.671,1.402l-0.682-0.096l-0.811,1.836l1.618,1.932l0.089,0.867l-0.702,0.906
			l-0.296,1.385l-0.068,1.876l0.562,3.116l0.147,0.868l0.94,0.558l0.911-0.209l1.075-1.079l1.708,0.317l0.839,0.036l-0.154,0.895
			l-1.393,0.361l0.314,1.046l2.07,0.702l1.201,1.062l1.234,0.337l1.921,1.054l0.031,0.865l0.689,0.66l-0.003,0.852l-0.928,0.202
			l1.945,0.831l0.256,0.677l-0.32,1.822l1.196,0.653l0.122,0.724l2.081,0.512l1.84,3.333l-0.446,1.426l-2.034-3.229l-0.147,0.664
			l1.61,2.588l0.505,1.582l-0.361,0.721l-1.213-0.29l-0.159,0.485l1.04,0.867l-0.079,0.902l1.702,0.12l0.583-0.795l0.738,0.369
			l1.591,2.582l2.155,2.266l1.126,1.172c-6.535-4.137-12.489-9.192-17.319-15.103c-2.869-3.512-5.411-7.45-7.295-11.653l0.041-0.273
			l-0.566-1.1l-0.078-0.04c-0.612-1.505-1.138-3.04-1.562-4.6l0.237-1.152l-0.382-1.072l0.581-1.688l-1.043-2.226l-0.199-2.575
			l-0.385-1.359c0.036-0.88,0.111-1.763,0.227-2.648c0.276-2.101,0.781-4.163,1.512-6.153c0.124-0.337,0.254-0.672,0.39-1.005
			c1.067-1.69,2.213-3.329,3.436-4.91C17.683,31.01,17.599,32.836,17.691,34.653L17.691,34.653z M40.791,94.751l-0.848,0.233
			c0,0-0.66,0.844-0.654,1.04c0.006,0.196-1.038,2.722-1.038,2.722l-1.644,1.413l-2.362,1.15l-2.067-0.604l-1.585-0.015
			c-4.886-3.413-9.383-7.348-13.257-11.782c-1.649-1.887-3.214-3.908-4.637-6.036l-0.588-2.65l-0.277-4.525l-1.296-5.131
			l0.781-2.972l0.182,0.031c2.468,4.264,5.549,8.195,8.856,11.651C26.234,85.419,33.25,90.594,40.791,94.751L40.791,94.751z
			 M22.919,103.326l0.282,1.647l-0.534,0.503L20.8,104.75l-0.809,0.091l0.342,0.601l-0.127,0.293l-1.442-1.276l0.29,0.873
			l0.477,0.708l0.332,0.18l-0.199,0.567l-0.466,0.081l0.204,0.289l-0.183,0.447l-0.023-0.007c-1.693-2.05-3.257-4.21-4.681-6.466
			l-0.489-3.31l0.383-2.074C17.031,98.463,19.891,100.992,22.919,103.326L22.919,103.326z M83.252,44.395l-0.063,0.384l0.444,0.376
			l0.741-0.116l1.199,0.169l0.476-1.668l0.496-0.4l0.04-0.742l-0.082-0.064c-0.623-0.05-1.244-0.118-1.863-0.204l-0.084,0.298
			l-0.62-0.053l-0.36,0.663l0.382,0.334l0.081,0.359l-0.231,0.788C83.806,44.522,83.246,44.429,83.252,44.395L83.252,44.395z
			 M118.714,51.934l0.921,0.028l0.123-0.652l-0.086-1.138l1.068,0.315l0.767,0.921l0.876,1.155l-0.757,0.266l-0.847-0.388
			l-0.331,0.479l0.313,0.891l0.056,0.428l1.85,1.513l0.495,0.763l-0.401,0.299l-0.679-0.211l0.05,0.445l0.886,0.597l0.515,2.556
			l-0.089,0.51l-0.718,0.687l-0.403-0.012l-0.284-0.705l-0.401-1.02l-0.478-0.758l0.526-0.428l-0.27-0.429l0.133-0.572l-0.93-0.477
			l-0.403-0.963l-0.784-1.297l-0.352-1.313l-0.665-0.884l-0.524-0.581L118.714,51.934z"/>
	</g>
	<g id="XMLID_16_">
		<path id="XMLID_32_" class="st1" d="M229.879,104.576l8.439-15.564h2.067l2.209,15.564h-2.198l-0.623-4.417h-5.715l-2.392,4.417
			H229.879z M234.902,98.603h4.652l-0.963-6.814L234.902,98.603z"/>
		<path id="XMLID_30_" class="st1" d="M247.218,104.576l3.113-15.564h2.069l-2.801,14.007h7.273l-0.315,1.556H247.218z"/>
		<path id="XMLID_28_" class="st1" d="M262.348,104.576l3.113-15.564h2.069l-2.801,14.007h7.273l-0.315,1.556H262.348z"/>
		<path id="XMLID_26_" class="st1" d="M276.961,104.576l0.312-1.556h3.629l2.491-12.451h-3.628l0.315-1.556h9.335l-0.311,1.556
			h-3.641l-2.491,12.451h3.641l-0.315,1.556H276.961z"/>
		<path id="XMLID_23_" class="st1" d="M290.401,104.576l8.439-15.564h2.067l2.209,15.564h-2.198l-0.623-4.417h-5.715l-2.392,4.417
			H290.401z M295.423,98.603h4.652l-0.963-6.814L295.423,98.603z"/>
		<path id="XMLID_21_" class="st1" d="M306.961,104.576l3.112-15.564h1.962l3.819,11.836h0.021l2.37-11.836h1.683l-3.101,15.564
			h-1.919l-3.85-11.908h-0.021l-2.392,11.908H306.961z"/>
		<path id="XMLID_19_" class="st1" d="M332.782,104.218c-1.478,0.499-2.835,0.748-4.074,0.748c-1.799,0-3.207-0.507-4.221-1.52
			c-1.015-1.013-1.522-2.473-1.522-4.38c0-1.788,0.428-3.556,1.283-5.305c0.855-1.749,1.951-3.043,3.286-3.88
			c1.336-0.838,2.799-1.257,4.39-1.257c1.171,0,2.401,0.2,3.691,0.599l-0.372,1.924c-1.27-0.645-2.466-0.967-3.589-0.967
			c-1.157,0-2.207,0.358-3.151,1.072c-0.943,0.714-1.729,1.793-2.356,3.236c-0.628,1.443-0.942,2.858-0.942,4.245
			c0,1.436,0.406,2.552,1.217,3.347c0.811,0.795,1.868,1.193,3.17,1.193c0.945,0,2.12-0.253,3.526-0.76L332.782,104.218z"/>
		<path id="XMLID_17_" class="st1" d="M337.937,104.576l3.113-15.564h9.107l-0.305,1.556h-7.044l-0.999,4.995h5.97l-0.305,1.556
			h-5.976l-1.18,5.899h7.524l-0.305,1.556H337.937z"/>
	</g>
</g>
</svg>